<svg width="488" height="143" viewBox="0 0 488 143" fill="none" xmlns="http://www.w3.org/2000/svg">
<path d="M115.333 53C115.333 54.4728 116.527 55.6667 118 55.6667C119.473 55.6667 120.667 54.4728 120.667 53C120.667 51.5272 119.473 50.3333 118 50.3333C116.527 50.3333 115.333 51.5272 115.333 53ZM241.5 76V61H240.5V76H241.5ZM233 52.5H118V53.5H233V52.5ZM241.5 61C241.5 56.3056 237.694 52.5 233 52.5V53.5C237.142 53.5 240.5 56.8579 240.5 61H241.5Z" fill="#8A8A8A"/>
<path d="M380 20L375 22.8868V17.1132L380 20ZM240.5 76V30H241.5V76H240.5ZM251 19.5H375.5V20.5H251V19.5ZM240.5 30C240.5 24.201 245.201 19.5 251 19.5V20.5C245.753 20.5 241.5 24.7533 241.5 30H240.5Z" fill="#8A8A8A"/>
<rect y="75" width="488" height="33" rx="8" fill="url(#paint0_linear_355_4556)"/>
<g filter="url(#filter0_d_355_4556)">
<rect x="228.593" y="77" width="28.8142" height="30" rx="14.4071" fill="#3A66D4"/>
<rect x="235.796" y="84.2036" width="14.4071" height="15.5929" rx="7.20356" stroke="white" strokeWidth="14.4071"/>
</g>
<path d="M4.998 35V11.942H1.176V9.842C2.296 9.842 3.29 9.688 4.158 9.38C5.026 9.072 5.586 8.372 5.838 7.28H7.392V35H4.998ZM8.60212 40.712C9.10612 39.424 9.45612 38.29 9.65212 37.31C9.87612 36.358 10.0021 35.518 10.0301 34.79C10.0861 34.034 10.1141 33.362 10.1141 32.774H12.5081C12.5081 33.922 12.4241 34.972 12.2561 35.924C12.0881 36.876 11.8501 37.744 11.5421 38.528C11.2621 39.34 10.9541 40.068 10.6181 40.712H8.60212ZM14.5504 35V31.64L23.7904 23.702C24.4344 23.142 25.1204 22.526 25.8484 21.854C26.5764 21.154 27.2484 20.412 27.8644 19.628C28.5084 18.816 29.0264 17.962 29.4184 17.066C29.8104 16.17 30.0064 15.232 30.0064 14.252C30.0064 13.272 29.7824 12.39 29.3344 11.606C28.8864 10.794 28.2004 10.164 27.2764 9.716C26.3524 9.24 25.1764 9.002 23.7484 9.002C22.9644 9.002 22.1524 9.1 21.3124 9.296C20.5004 9.492 19.7724 9.884 19.1284 10.472C18.4844 11.032 17.9944 11.858 17.6584 12.95C17.3504 14.014 17.2944 15.414 17.4904 17.15L15.1384 16.94C14.9424 14.924 15.1104 13.146 15.6424 11.606C16.2024 10.066 17.1544 8.876 18.4984 8.036C19.8424 7.168 21.5924 6.734 23.7484 6.734C25.5684 6.734 27.1224 7.042 28.4104 7.658C29.6984 8.246 30.6784 9.086 31.3504 10.178C32.0504 11.27 32.4004 12.558 32.4004 14.042C32.4004 15.274 32.1904 16.422 31.7704 17.486C31.3784 18.55 30.8464 19.53 30.1744 20.426C29.5304 21.322 28.8024 22.162 27.9904 22.946C27.2064 23.702 26.4364 24.402 25.6804 25.046L16.9444 32.564V32.816L33.2824 32.732V35H14.5504ZM45.4007 35.588C43.7207 35.588 42.2227 35.238 40.9067 34.538C39.6187 33.81 38.5267 32.802 37.6307 31.514C36.7347 30.226 36.0487 28.714 35.5727 26.978C35.0967 25.242 34.8587 23.338 34.8587 21.266C34.8587 18.298 35.2927 15.722 36.1607 13.538C37.0567 11.354 38.2887 9.674 39.8567 8.498C41.4527 7.322 43.3147 6.734 45.4427 6.734C47.6827 6.734 49.5727 7.364 51.1127 8.624C52.6527 9.884 53.8287 11.606 54.6407 13.79C55.4807 15.946 55.9007 18.438 55.9007 21.266C55.9007 23.282 55.6767 25.158 55.2287 26.894C54.7807 28.63 54.1087 30.156 53.2127 31.472C52.3167 32.76 51.2107 33.768 49.8947 34.496C48.6067 35.224 47.1087 35.588 45.4007 35.588ZM45.3587 33.278C46.6187 33.278 47.7387 33.012 48.7187 32.48C49.7267 31.92 50.5807 31.122 51.2807 30.086C52.0087 29.022 52.5547 27.734 52.9187 26.222C53.3107 24.71 53.5067 22.988 53.5067 21.056C53.5067 18.62 53.1847 16.506 52.5407 14.714C51.8967 12.894 50.9587 11.494 49.7267 10.514C48.5227 9.506 47.0947 9.002 45.4427 9.002C43.8467 9.002 42.4327 9.478 41.2007 10.43C39.9687 11.354 38.9887 12.712 38.2607 14.504C37.5607 16.296 37.2107 18.522 37.2107 21.182C37.2107 23.058 37.3927 24.752 37.7567 26.264C38.1487 27.748 38.6947 29.022 39.3947 30.086C40.1227 31.122 40.9767 31.92 41.9567 32.48C42.9647 33.012 44.0987 33.278 45.3587 33.278ZM69.6737 35.588C67.9937 35.588 66.4957 35.238 65.1797 34.538C63.8917 33.81 62.7997 32.802 61.9037 31.514C61.0077 30.226 60.3217 28.714 59.8457 26.978C59.3697 25.242 59.1317 23.338 59.1317 21.266C59.1317 18.298 59.5657 15.722 60.4337 13.538C61.3297 11.354 62.5617 9.674 64.1297 8.498C65.7257 7.322 67.5877 6.734 69.7157 6.734C71.9557 6.734 73.8457 7.364 75.3857 8.624C76.9257 9.884 78.1017 11.606 78.9137 13.79C79.7537 15.946 80.1737 18.438 80.1737 21.266C80.1737 23.282 79.9497 25.158 79.5017 26.894C79.0537 28.63 78.3817 30.156 77.4857 31.472C76.5897 32.76 75.4837 33.768 74.1677 34.496C72.8797 35.224 71.3817 35.588 69.6737 35.588ZM69.6317 33.278C70.8917 33.278 72.0117 33.012 72.9917 32.48C73.9997 31.92 74.8537 31.122 75.5537 30.086C76.2817 29.022 76.8277 27.734 77.1917 26.222C77.5837 24.71 77.7797 22.988 77.7797 21.056C77.7797 18.62 77.4577 16.506 76.8137 14.714C76.1697 12.894 75.2317 11.494 73.9997 10.514C72.7957 9.506 71.3677 9.002 69.7157 9.002C68.1197 9.002 66.7057 9.478 65.4737 10.43C64.2417 11.354 63.2617 12.712 62.5337 14.504C61.8337 16.296 61.4837 18.522 61.4837 21.182C61.4837 23.058 61.6657 24.752 62.0297 26.264C62.4217 27.748 62.9677 29.022 63.6677 30.086C64.3957 31.122 65.2497 31.92 66.2297 32.48C67.2377 33.012 68.3717 33.278 69.6317 33.278Z" fill="white"/>
<path d="M0.384 48.6533H9.136V50.2853H5.68V59.8533H3.84V50.2853H0.384V48.6533ZM10.2705 59.4373C9.6305 59.0853 9.1505 58.6053 8.7985 57.9653C8.4465 57.3253 8.2865 56.5893 8.2865 55.7573C8.2865 54.9413 8.4465 54.2213 8.7985 53.5813C9.1505 52.9413 9.6305 52.4453 10.2705 52.0933C10.9105 51.7413 11.6305 51.5653 12.4625 51.5653C13.2785 51.5653 13.9985 51.7413 14.6385 52.0933C15.2785 52.4453 15.7585 52.9413 16.1105 53.5813C16.4625 54.2213 16.6385 54.9413 16.6385 55.7573C16.6385 56.5893 16.4625 57.3253 16.1105 57.9653C15.7585 58.6053 15.2785 59.0853 14.6385 59.4373C13.9985 59.7893 13.2785 59.9493 12.4625 59.9493C11.6305 59.9493 10.9105 59.7893 10.2705 59.4373ZM14.2065 57.7253C14.6545 57.2133 14.8785 56.5573 14.8785 55.7573C14.8785 54.9573 14.6545 54.3173 14.2065 53.8053C13.7585 53.2933 13.1825 53.0373 12.4625 53.0373C11.7265 53.0373 11.1505 53.2933 10.7185 53.8053C10.2705 54.3173 10.0625 54.9573 10.0625 55.7573C10.0625 56.5573 10.2705 57.2133 10.7185 57.7253C11.1505 58.2373 11.7265 58.4773 12.4625 58.4773C13.1825 58.4773 13.7585 58.2373 14.2065 57.7253ZM18.1735 53.1813H16.7495V51.6613H18.1735V49.3733H19.9175V51.6613H21.8855V53.1813H19.9175V57.4533C19.9175 57.7733 19.9815 58.0133 20.1095 58.1413C20.2375 58.2693 20.4455 58.3333 20.7655 58.3333H22.0775V59.8533H20.4135C19.6295 59.8533 19.0535 59.6773 18.7015 59.3093C18.3495 58.9573 18.1735 58.3973 18.1735 57.6293V53.1813ZM30.4311 58.3493V59.8533H29.5191C28.9751 59.8533 28.5911 59.7413 28.3671 59.5173C28.1271 59.2933 28.0151 58.9733 28.0151 58.5413C27.3911 59.4853 26.4951 59.9493 25.3111 59.9493C24.3831 59.9493 23.6471 59.7413 23.1031 59.3093C22.5431 58.8933 22.2711 58.3013 22.2711 57.5493C22.2711 56.7173 22.5591 56.0613 23.1671 55.6133C23.7591 55.1653 24.6231 54.9253 25.7751 54.9253H27.8391V54.4293C27.8391 53.9813 27.6791 53.6133 27.3591 53.3573C27.0391 53.1013 26.5911 52.9573 26.0311 52.9573C25.5191 52.9573 25.1031 53.0693 24.7831 53.2933C24.4631 53.5173 24.2711 53.8053 24.2071 54.1573H22.5111C22.5911 53.3413 22.9591 52.7013 23.5991 52.2533C24.2391 51.8053 25.0711 51.5653 26.1111 51.5653C27.1991 51.5653 28.0471 51.8213 28.6551 52.3333C29.2471 52.8453 29.5511 53.5813 29.5511 54.5413V57.7733C29.5511 58.1573 29.7271 58.3493 30.0951 58.3493H30.4311ZM27.8391 56.2053H25.6951C25.1511 56.2053 24.7511 56.3173 24.4631 56.5253C24.1751 56.7333 24.0311 57.0373 24.0311 57.4373C24.0311 57.7893 24.1591 58.0773 24.4311 58.2853C24.7031 58.5093 25.0711 58.6053 25.5511 58.6053C26.2551 58.6053 26.8151 58.4133 27.2151 58.0293C27.6151 57.6453 27.8231 57.1333 27.8391 56.4933V56.2053ZM31.0524 48.6533H32.7804V59.8533H31.0524V48.6533ZM38.456 51.6613V50.8453C38.456 50.1253 38.632 49.5813 39.016 49.2133C39.384 48.8453 39.96 48.6533 40.744 48.6533H42.408V50.1733H40.984C40.696 50.1733 40.504 50.2373 40.376 50.3653C40.248 50.4933 40.2 50.7013 40.2 50.9733V51.6613H42.392V53.1813H40.2V59.8533H38.456V53.1813H37.032V51.6613H38.456ZM44.2724 59.4373C43.6324 59.0853 43.1524 58.6053 42.8004 57.9653C42.4484 57.3253 42.2884 56.5893 42.2884 55.7573C42.2884 54.9413 42.4484 54.2213 42.8004 53.5813C43.1524 52.9413 43.6324 52.4453 44.2724 52.0933C44.9124 51.7413 45.6324 51.5653 46.4644 51.5653C47.2804 51.5653 48.0004 51.7413 48.6404 52.0933C49.2804 52.4453 49.7604 52.9413 50.1124 53.5813C50.4644 54.2213 50.6404 54.9413 50.6404 55.7573C50.6404 56.5893 50.4644 57.3253 50.1124 57.9653C49.7604 58.6053 49.2804 59.0853 48.6404 59.4373C48.0004 59.7893 47.2804 59.9493 46.4644 59.9493C45.6324 59.9493 44.9124 59.7893 44.2724 59.4373ZM48.2084 57.7253C48.6564 57.2133 48.8804 56.5573 48.8804 55.7573C48.8804 54.9573 48.6564 54.3173 48.2084 53.8053C47.7604 53.2933 47.1844 53.0373 46.4644 53.0373C45.7284 53.0373 45.1524 53.2933 44.7204 53.8053C44.2724 54.3173 44.0644 54.9573 44.0644 55.7573C44.0644 56.5573 44.2724 57.2133 44.7204 57.7253C45.1524 58.2373 45.7284 58.4773 46.4644 58.4773C47.1844 58.4773 47.7604 58.2373 48.2084 57.7253ZM51.7099 48.6533H53.4379V59.8533H51.7099V48.6533ZM54.8117 48.6533H56.5397V59.8533H54.8117V48.6533ZM59.5936 59.4373C58.9536 59.0853 58.4736 58.6053 58.1216 57.9653C57.7696 57.3253 57.6096 56.5893 57.6096 55.7573C57.6096 54.9413 57.7696 54.2213 58.1216 53.5813C58.4736 52.9413 58.9536 52.4453 59.5936 52.0933C60.2336 51.7413 60.9536 51.5653 61.7856 51.5653C62.6016 51.5653 63.3216 51.7413 63.9616 52.0933C64.6016 52.4453 65.0816 52.9413 65.4336 53.5813C65.7856 54.2213 65.9616 54.9413 65.9616 55.7573C65.9616 56.5893 65.7856 57.3253 65.4336 57.9653C65.0816 58.6053 64.6016 59.0853 63.9616 59.4373C63.3216 59.7893 62.6016 59.9493 61.7856 59.9493C60.9536 59.9493 60.2336 59.7893 59.5936 59.4373ZM63.5296 57.7253C63.9776 57.2133 64.2016 56.5573 64.2016 55.7573C64.2016 54.9573 63.9776 54.3173 63.5296 53.8053C63.0816 53.2933 62.5056 53.0373 61.7856 53.0373C61.0496 53.0373 60.4736 53.2933 60.0416 53.8053C59.5936 54.3173 59.3856 54.9573 59.3856 55.7573C59.3856 56.5573 59.5936 57.2133 60.0416 57.7253C60.4736 58.2373 61.0496 58.4773 61.7856 58.4773C62.5056 58.4773 63.0816 58.2373 63.5296 57.7253ZM66.0128 51.6613H67.8368L69.7088 57.9333L71.5808 51.6613H73.1648L74.9568 57.9333L76.8928 51.6613H78.6528L75.9328 59.8533H74.0768L72.3488 54.2853L70.5568 59.8533L68.6848 59.8693L66.0128 51.6613ZM79.2 53.5653C79.536 52.9253 80 52.4453 80.608 52.0933C81.216 51.7413 81.904 51.5653 82.688 51.5653C83.472 51.5653 84.16 51.7253 84.768 52.0453C85.376 52.3653 85.84 52.8293 86.192 53.4053C86.544 53.9973 86.72 54.6853 86.736 55.4693C86.736 55.6933 86.72 55.9013 86.688 56.1253H80.512V56.2213C80.544 56.9413 80.768 57.5013 81.184 57.9173C81.584 58.3333 82.128 58.5413 82.8 58.5413C83.328 58.5413 83.776 58.4293 84.144 58.1733C84.496 57.9173 84.736 57.5653 84.864 57.1013H86.592C86.432 57.9333 86.032 58.6213 85.376 59.1493C84.72 59.6933 83.904 59.9493 82.928 59.9493C82.064 59.9493 81.328 59.7893 80.688 59.4373C80.048 59.0853 79.568 58.6053 79.216 57.9653C78.864 57.3413 78.704 56.6053 78.704 55.7733C78.704 54.9413 78.864 54.2053 79.2 53.5653ZM84.976 54.8613C84.896 54.2693 84.656 53.8053 84.256 53.4693C83.856 53.1333 83.36 52.9573 82.752 52.9573C82.176 52.9573 81.696 53.1333 81.28 53.4853C80.864 53.8373 80.64 54.2853 80.576 54.8613H84.976ZM92.341 51.6613V53.2773H91.573C90.853 53.2773 90.341 53.5173 90.021 53.9813C89.701 54.4453 89.541 55.0373 89.541 55.7413V59.8533H87.813V51.6613H89.349L89.541 52.8933C89.765 52.5093 90.069 52.2213 90.453 51.9973C90.821 51.7733 91.317 51.6613 91.957 51.6613H92.341ZM94.2596 57.1493C94.2916 57.5813 94.4836 57.9333 94.8516 58.2053C95.2196 58.4773 95.6996 58.6053 96.2916 58.6053C96.8036 58.6053 97.2356 58.5093 97.5556 58.3173C97.8756 58.1253 98.0516 57.8533 98.0516 57.5173C98.0516 57.2453 97.9716 57.0373 97.8276 56.8933C97.6676 56.7653 97.4756 56.6693 97.2196 56.6053C96.9636 56.5413 96.5796 56.4773 96.0676 56.4133C95.3476 56.3333 94.7556 56.2213 94.2916 56.0773C93.8276 55.9333 93.4596 55.7093 93.1716 55.3893C92.8836 55.0693 92.7556 54.6533 92.7556 54.1093C92.7556 53.6133 92.8836 53.1653 93.1716 52.7813C93.4596 52.3973 93.8436 52.0933 94.3396 51.8693C94.8356 51.6613 95.3956 51.5493 96.0356 51.5493C97.0596 51.5493 97.9076 51.7893 98.5476 52.2373C99.1876 52.7013 99.5396 53.3413 99.6036 54.1733H97.9236C97.8756 53.8053 97.6836 53.5013 97.3636 53.2613C97.0276 53.0213 96.6116 52.8933 96.1156 52.8933C95.6036 52.8933 95.2036 52.9893 94.8996 53.1813C94.5796 53.3733 94.4356 53.6453 94.4356 53.9653C94.4356 54.2213 94.4996 54.3973 94.6596 54.5253C94.8196 54.6533 95.0116 54.7333 95.2516 54.7813C95.4756 54.8293 95.8596 54.8773 96.3876 54.9413C97.0916 55.0213 97.6836 55.1333 98.1636 55.2933C98.6436 55.4533 99.0276 55.6933 99.3156 56.0293C99.6036 56.3653 99.7476 56.8133 99.7476 57.3893C99.7476 57.9013 99.5876 58.3653 99.2996 58.7493C98.9956 59.1333 98.5796 59.4373 98.0676 59.6453C97.5396 59.8533 96.9476 59.9493 96.3076 59.9493C95.2036 59.9493 94.3076 59.7093 93.6356 59.2133C92.9636 58.7173 92.6116 58.0293 92.5956 57.1493H94.2596Z" fill="white" fill-opacity="0.5"/>
<path d="M406.844 7.7L406.214 2.156H409.196L408.524 7.7H406.844ZM406.214 40.292L406.844 34.748H408.524L409.196 40.292H406.214ZM407.768 35.084C405.976 35.084 404.408 34.888 403.064 34.496C401.72 34.076 400.614 33.488 399.746 32.732C398.906 31.948 398.29 30.996 397.898 29.876C397.534 28.728 397.45 27.412 397.646 25.928L399.83 25.76C399.606 27.356 399.788 28.672 400.376 29.708C400.992 30.744 401.93 31.528 403.19 32.06C404.478 32.564 406.018 32.816 407.81 32.816C409.546 32.816 411.002 32.606 412.178 32.186C413.382 31.766 414.292 31.164 414.908 30.38C415.552 29.596 415.874 28.672 415.874 27.608C415.874 26.432 415.524 25.522 414.824 24.878C414.124 24.234 413.2 23.744 412.052 23.408C410.932 23.072 409.714 22.764 408.398 22.484C407.166 22.232 405.948 21.952 404.744 21.644C403.54 21.308 402.434 20.874 401.426 20.342C400.418 19.782 399.606 19.068 398.99 18.2C398.402 17.304 398.108 16.17 398.108 14.798C398.108 13.23 398.5 11.886 399.284 10.766C400.096 9.618 401.188 8.736 402.56 8.12C403.96 7.504 405.556 7.196 407.348 7.196C409.14 7.196 410.778 7.49 412.262 8.078C413.746 8.666 414.936 9.576 415.832 10.808C416.756 12.012 417.232 13.538 417.26 15.386L414.908 15.806C414.908 14.742 414.726 13.804 414.362 12.992C413.998 12.18 413.466 11.508 412.766 10.976C412.094 10.444 411.296 10.052 410.372 9.8C409.448 9.52 408.426 9.38 407.306 9.38C405.99 9.38 404.814 9.604 403.778 10.052C402.742 10.472 401.916 11.074 401.3 11.858C400.712 12.642 400.418 13.58 400.418 14.672C400.418 15.932 400.838 16.926 401.678 17.654C402.518 18.354 403.596 18.9 404.912 19.292C406.256 19.656 407.67 19.992 409.154 20.3C410.33 20.552 411.45 20.846 412.514 21.182C413.606 21.49 414.572 21.91 415.412 22.442C416.28 22.974 416.952 23.674 417.428 24.542C417.932 25.382 418.184 26.446 418.184 27.734C418.184 29.19 417.792 30.478 417.008 31.598C416.252 32.69 415.104 33.544 413.564 34.16C412.024 34.776 410.092 35.084 407.768 35.084ZM420.884 35V31.598L430.166 23.786C430.866 23.198 431.566 22.568 432.266 21.896C432.994 21.196 433.666 20.454 434.282 19.67C434.926 18.858 435.444 18.004 435.836 17.108C436.256 16.212 436.466 15.26 436.466 14.252C436.466 13.216 436.228 12.306 435.752 11.522C435.276 10.738 434.562 10.122 433.61 9.674C432.686 9.226 431.524 9.002 430.124 9.002C429.34 9.002 428.542 9.1 427.73 9.296C426.946 9.492 426.232 9.87 425.588 10.43C424.972 10.99 424.482 11.788 424.118 12.824C423.782 13.86 423.628 15.218 423.656 16.898L421.346 16.604C421.29 14.644 421.556 12.922 422.144 11.438C422.76 9.954 423.726 8.806 425.042 7.994C426.358 7.154 428.066 6.734 430.166 6.734C431.958 6.734 433.498 7.042 434.786 7.658C436.074 8.274 437.068 9.128 437.768 10.22C438.468 11.312 438.818 12.586 438.818 14.042C438.818 15.33 438.594 16.52 438.146 17.612C437.726 18.704 437.18 19.712 436.508 20.636C435.836 21.56 435.108 22.4 434.324 23.156C433.54 23.912 432.784 24.584 432.056 25.172L423.236 32.522V32.858L439.7 32.732V35H420.884ZM451.576 35.588C449.7 35.588 448.09 35.294 446.746 34.706C445.402 34.09 444.366 33.236 443.638 32.144C442.938 31.024 442.56 29.722 442.504 28.238L444.646 27.524C444.786 29.316 445.374 30.73 446.41 31.766C447.446 32.774 449.126 33.278 451.45 33.278C453.858 33.278 455.72 32.676 457.036 31.472C458.352 30.24 459.01 28.28 459.01 25.592C459.01 24.696 458.912 23.828 458.716 22.988C458.548 22.12 458.24 21.35 457.792 20.678C457.344 19.978 456.728 19.418 455.944 18.998C455.16 18.578 454.166 18.368 452.962 18.368C451.842 18.368 450.876 18.508 450.064 18.788C449.28 19.068 448.636 19.446 448.132 19.922C447.628 20.37 447.236 20.874 446.956 21.434C446.676 21.966 446.48 22.484 446.368 22.988H443.218L444.016 7.28H460.102V9.506H446.2L445.486 20.762H446.032C446.592 18.97 447.544 17.738 448.888 17.066C450.232 16.366 451.646 16.016 453.13 16.016C455.062 16.016 456.63 16.422 457.834 17.234C459.066 18.046 459.976 19.166 460.564 20.594C461.152 22.022 461.446 23.674 461.446 25.55C461.446 27.986 460.998 29.946 460.102 31.43C459.234 32.886 458.058 33.95 456.574 34.622C455.09 35.266 453.424 35.588 451.576 35.588Z" fill="white"/>
<path d="M395.08 48.6373H397.24L400.184 53.7733L403.208 48.6373H405.272L401.096 55.7093V59.8533H399.256V55.7093L395.08 48.6373ZM406.364 59.4373C405.724 59.0853 405.244 58.6053 404.892 57.9653C404.54 57.3253 404.38 56.5893 404.38 55.7573C404.38 54.9413 404.54 54.2213 404.892 53.5813C405.244 52.9413 405.724 52.4453 406.364 52.0933C407.004 51.7413 407.724 51.5653 408.556 51.5653C409.372 51.5653 410.092 51.7413 410.732 52.0933C411.372 52.4453 411.852 52.9413 412.204 53.5813C412.556 54.2213 412.732 54.9413 412.732 55.7573C412.732 56.5893 412.556 57.3253 412.204 57.9653C411.852 58.6053 411.372 59.0853 410.732 59.4373C410.092 59.7893 409.372 59.9493 408.556 59.9493C407.724 59.9493 407.004 59.7893 406.364 59.4373ZM410.3 57.7253C410.748 57.2133 410.972 56.5573 410.972 55.7573C410.972 54.9573 410.748 54.3173 410.3 53.8053C409.852 53.2933 409.276 53.0373 408.556 53.0373C407.82 53.0373 407.244 53.2933 406.812 53.8053C406.364 54.3173 406.156 54.9573 406.156 55.7573C406.156 56.5573 406.364 57.2133 406.812 57.7253C407.244 58.2373 407.82 58.4773 408.556 58.4773C409.276 58.4773 409.852 58.2373 410.3 57.7253ZM421.146 51.6613V59.8533H419.626L419.434 58.8133C418.81 59.5813 417.962 59.9493 416.906 59.9493C415.946 59.9493 415.162 59.6613 414.57 59.0533C413.962 58.4613 413.674 57.5013 413.674 56.1733V51.6613H415.402V55.9973C415.402 56.7973 415.562 57.4053 415.882 57.8213C416.202 58.2373 416.666 58.4453 417.306 58.4453C417.962 58.4453 418.474 58.2053 418.858 57.7253C419.226 57.2453 419.418 56.5733 419.418 55.7253V51.6613H421.146ZM427.057 51.6613V53.2773H426.289C425.569 53.2773 425.057 53.5173 424.737 53.9813C424.417 54.4453 424.257 55.0373 424.257 55.7413V59.8533H422.529V51.6613H424.065L424.257 52.8933C424.481 52.5093 424.785 52.2213 425.169 51.9973C425.537 51.7733 426.033 51.6613 426.673 51.6613H427.057ZM431.783 48.6533H439.095V50.2853H433.623V53.3893H438.135V54.9733H433.623V58.2213H439.287V59.8533H431.783V48.6533ZM447.909 58.3493V59.8533H446.997C446.453 59.8533 446.069 59.7413 445.845 59.5173C445.605 59.2933 445.493 58.9733 445.493 58.5413C444.869 59.4853 443.973 59.9493 442.789 59.9493C441.861 59.9493 441.125 59.7413 440.581 59.3093C440.021 58.8933 439.749 58.3013 439.749 57.5493C439.749 56.7173 440.037 56.0613 440.645 55.6133C441.237 55.1653 442.101 54.9253 443.253 54.9253H445.317V54.4293C445.317 53.9813 445.157 53.6133 444.837 53.3573C444.517 53.1013 444.069 52.9573 443.509 52.9573C442.997 52.9573 442.581 53.0693 442.261 53.2933C441.941 53.5173 441.749 53.8053 441.685 54.1573H439.989C440.069 53.3413 440.437 52.7013 441.077 52.2533C441.717 51.8053 442.549 51.5653 443.589 51.5653C444.677 51.5653 445.525 51.8213 446.133 52.3333C446.725 52.8453 447.029 53.5813 447.029 54.5413V57.7733C447.029 58.1573 447.205 58.3493 447.573 58.3493H447.909ZM445.317 56.2053H443.173C442.629 56.2053 442.229 56.3173 441.941 56.5253C441.653 56.7333 441.509 57.0373 441.509 57.4373C441.509 57.7893 441.637 58.0773 441.909 58.2853C442.181 58.5093 442.549 58.6053 443.029 58.6053C443.733 58.6053 444.293 58.4133 444.693 58.0293C445.093 57.6453 445.301 57.1333 445.317 56.4933V56.2053ZM453.058 51.6613V53.2773H452.29C451.57 53.2773 451.058 53.5173 450.738 53.9813C450.418 54.4453 450.258 55.0373 450.258 55.7413V59.8533H448.53V51.6613H450.066L450.258 52.8933C450.482 52.5093 450.786 52.2213 451.17 51.9973C451.538 51.7733 452.034 51.6613 452.674 51.6613H453.058ZM460.523 52.4613C461.131 53.0693 461.451 54.0293 461.451 55.3413V59.8533H459.707V55.4373C459.707 54.6693 459.531 54.0773 459.211 53.6613C458.875 53.2613 458.395 53.0533 457.755 53.0533C457.067 53.0533 456.523 53.2933 456.139 53.7733C455.755 54.2533 455.563 54.8933 455.563 55.7253V59.8533H453.835V51.6613H455.339L455.531 52.7333C456.139 51.9653 457.019 51.5653 458.155 51.5653C459.115 51.5653 459.915 51.8693 460.523 52.4613ZM464.318 48.6853C464.51 48.8773 464.622 49.1333 464.622 49.4213C464.622 49.7253 464.51 49.9813 464.318 50.1733C464.11 50.3653 463.854 50.4613 463.566 50.4613C463.262 50.4613 463.006 50.3653 462.814 50.1733C462.606 49.9813 462.51 49.7253 462.51 49.4213C462.51 49.1333 462.606 48.8773 462.814 48.6853C463.006 48.4933 463.262 48.3813 463.566 48.3813C463.854 48.3813 464.11 48.4933 464.318 48.6853ZM462.702 51.6613H464.43V59.8533H462.702V51.6613ZM472.492 52.4613C473.1 53.0693 473.42 54.0293 473.42 55.3413V59.8533H471.676V55.4373C471.676 54.6693 471.5 54.0773 471.18 53.6613C470.844 53.2613 470.364 53.0533 469.724 53.0533C469.036 53.0533 468.492 53.2933 468.108 53.7733C467.724 54.2533 467.532 54.8933 467.532 55.7253V59.8533H465.804V51.6613H467.308L467.5 52.7333C468.108 51.9653 468.988 51.5653 470.124 51.5653C471.084 51.5653 471.884 51.8693 472.492 52.4613ZM482.624 51.6613V59.5173C482.624 60.6693 482.272 61.5653 481.6 62.2053C480.912 62.8453 479.856 63.1493 478.432 63.1493C477.312 63.1493 476.416 62.9093 475.728 62.4133C475.024 61.9173 474.64 61.2133 474.576 60.3013H476.336C476.432 60.7653 476.688 61.1173 477.072 61.3733C477.456 61.6293 477.952 61.7413 478.56 61.7413C480.128 61.7413 480.912 60.9893 480.912 59.4533V58.5413C480.304 59.4373 479.424 59.8853 478.24 59.8853C477.488 59.8853 476.816 59.7253 476.24 59.3893C475.648 59.0533 475.184 58.5733 474.864 57.9493C474.528 57.3253 474.368 56.5893 474.368 55.7253C474.368 54.9093 474.528 54.1893 474.864 53.5493C475.2 52.9253 475.664 52.4453 476.256 52.0933C476.832 51.7413 477.504 51.5653 478.24 51.5653C478.848 51.5653 479.392 51.6933 479.84 51.9333C480.288 52.1893 480.64 52.5253 480.928 52.9413L481.12 51.6613H482.624ZM480.256 57.6933C480.688 57.1973 480.912 56.5573 480.912 55.7573C480.912 54.9573 480.688 54.3013 480.256 53.7893C479.808 53.2773 479.232 53.0213 478.528 53.0213C477.808 53.0213 477.232 53.2773 476.8 53.7733C476.352 54.2853 476.144 54.9253 476.144 55.7253C476.144 56.5253 476.352 57.1813 476.8 57.6773C477.232 58.1893 477.808 58.4293 478.528 58.4293C479.232 58.4293 479.808 58.1893 480.256 57.6933Z" fill="white" fill-opacity="0.5"/>
<defs>
<filter id="filter0_d_355_4556" x="196.593" y="49" width="92.8142" height="94" filterUnits="userSpaceOnUse" color-interpolation-filters="sRGB">
<feFlood flood-opacity="0" result="BackgroundImageFix"/>
<feColorMatrix in="SourceAlpha" type="matrix" values="0 0 0 0 0 0 0 0 0 0 0 0 0 0 0 0 0 0 127 0" result="hardAlpha"/>
<feOffset dy="4"/>
<feGaussianBlur stdDeviation="16"/>
<feComposite in2="hardAlpha" operator="out"/>
<feColorMatrix type="matrix" values="0 0 0 0 0.0588235 0 0 0 0 0.0588235 0 0 0 0 0.0588235 0 0 0 0.5 0"/>
<feBlend mode="normal" in2="BackgroundImageFix" result="effect1_dropShadow_355_4556"/>
<feBlend mode="normal" in="SourceGraphic" in2="effect1_dropShadow_355_4556" result="shape"/>
</filter>
<linearGradient id="paint0_linear_355_4556" x1="0" y1="91.5" x2="488" y2="91.5" gradientUnits="userSpaceOnUse">
<stop stop-color="#85D421"/>
<stop offset="0.175" stop-color="#2FC373"/>
<stop offset="0.365" stop-color="#34C2EE"/>
<stop offset="0.565" stop-color="#434AE8"/>
<stop offset="0.765" stop-color="#9C35EC"/>
<stop offset="1" stop-color="#FF2983"/>
</linearGradient>
</defs>
</svg>
