<svg width="203" height="360" viewBox="0 0 203 360" fill="none" xmlns="http://www.w3.org/2000/svg">
<g filter="url(#filter0_b_355_4658)">
<rect x="0.235352" width="332.742" height="360" rx="20.9361" fill="url(#paint0_linear_355_4658)" fill-opacity="0.1"/>
<rect x="0.880454" y="0.645103" width="331.451" height="358.71" rx="20.291" stroke="url(#paint1_linear_355_4658)" strokeWidth="1.29021"/>
<g filter="url(#filter1_b_355_4658)">
<rect x="18.5593" y="17.4468" width="289.616" height="49.7232" rx="8.72338" fill="url(#paint2_linear_355_4658)" fill-opacity="0.1"/>
<rect x="19.1572" y="18.0447" width="288.42" height="48.5276" rx="8.12555" stroke="url(#paint3_linear_355_4658)" strokeWidth="1.19565"/>
<path d="M30.772 42.7873C30.772 39.0863 30.772 37.2358 32.0495 36.086C33.327 34.9363 35.3831 34.9363 39.4953 34.9363C43.6075 34.9363 45.6637 34.9363 46.9412 36.086C48.2187 37.2358 48.2187 39.0863 48.2187 42.7873C48.2187 46.4883 48.2187 48.3389 46.9412 49.4886C45.6637 50.6384 43.6075 50.6384 39.4953 50.6384C35.3831 50.6384 33.327 50.6384 32.0495 49.4886C30.772 48.3389 30.772 46.4883 30.772 42.7873Z" stroke="#B9E567" strokeWidth="1.30851" strokeLinecap="round" strokeLinejoin="round"/>
<path d="M33.3889 46.713C34.443 44.4614 38.3719 44.3133 39.4953 46.713M38.1868 40.6066C38.1868 41.5702 37.4057 42.3513 36.4421 42.3513C35.4785 42.3513 34.6974 41.5702 34.6974 40.6066C34.6974 39.6431 35.4785 38.8619 36.4421 38.8619C37.4057 38.8619 38.1868 39.6431 38.1868 40.6066Z" stroke="#B9E567" strokeWidth="1.30851" strokeLinecap="round"/>
<path d="M42.1123 41.0427H45.6017" stroke="#B9E567" strokeWidth="1.30851" strokeLinecap="round" strokeLinejoin="round"/>
<path d="M42.1123 44.5319H45.6017" stroke="#B9E567" strokeWidth="1.30851" strokeLinecap="round" strokeLinejoin="round"/>
<path d="M65.1769 32.1447C65.8469 32.1447 66.4331 32.2842 66.9495 32.5355C67.452 32.7867 67.8567 33.1496 68.1359 33.6242C68.415 34.0987 68.5546 34.6431 68.5546 35.2572C68.5546 35.8853 68.415 36.4296 68.1359 36.9041C67.8567 37.3787 67.452 37.7416 66.9495 37.9928C66.4331 38.2441 65.8469 38.3697 65.1769 38.3697H62.9298V41.9149H61.3247V32.1447H65.1769ZM62.9298 36.9739H65.0373C65.6096 36.9739 66.0702 36.8204 66.4052 36.5133C66.7401 36.2063 66.9216 35.7876 66.9216 35.2572C66.9216 34.7268 66.7541 34.3081 66.4191 34.001C66.0841 33.6939 65.6235 33.5404 65.0513 33.5404H62.9298V36.9739ZM75.773 40.6029V41.9149H74.9774C74.5029 41.9149 74.1679 41.8172 73.9725 41.6218C73.7631 41.4263 73.6654 41.1472 73.6654 40.7703C73.1211 41.5938 72.3395 41.9986 71.3066 41.9986C70.4971 41.9986 69.855 41.8172 69.3805 41.4403C68.892 41.0774 68.6547 40.561 68.6547 39.905C68.6547 39.1792 68.9059 38.607 69.4363 38.2161C69.9527 37.8253 70.7064 37.616 71.7114 37.616H73.5119V37.1833C73.5119 36.7925 73.3723 36.4715 73.0932 36.2482C72.814 36.0248 72.4232 35.8992 71.9347 35.8992C71.4881 35.8992 71.1252 35.9969 70.846 36.1923C70.5669 36.3877 70.3994 36.639 70.3435 36.946H68.8641C68.9339 36.2342 69.2549 35.6759 69.8132 35.2851C70.3715 34.8943 71.0972 34.6849 72.0045 34.6849C72.9536 34.6849 73.6933 34.9082 74.2237 35.3549C74.7401 35.8015 75.0053 36.4436 75.0053 37.281V40.1004C75.0053 40.4354 75.1589 40.6029 75.4799 40.6029H75.773ZM73.5119 38.7326H71.6416C71.167 38.7326 70.8181 38.8303 70.5669 39.0117C70.3156 39.1932 70.19 39.4584 70.19 39.8073C70.19 40.1144 70.3017 40.3656 70.539 40.547C70.7762 40.7424 71.0972 40.8262 71.516 40.8262C72.1301 40.8262 72.6186 40.6587 72.9675 40.3237C73.3165 39.9887 73.4979 39.5421 73.5119 38.9838V38.7326ZM77.5153 39.5561C77.5432 39.9329 77.7107 40.24 78.0317 40.4772C78.3527 40.7145 78.7714 40.8262 79.2878 40.8262C79.7345 40.8262 80.1113 40.7424 80.3905 40.5749C80.6696 40.4075 80.8232 40.1702 80.8232 39.8771C80.8232 39.6398 80.7534 39.4584 80.6278 39.3327C80.4882 39.2211 80.3207 39.1373 80.0974 39.0815C79.8741 39.0257 79.5391 38.9698 79.0924 38.914C78.4644 38.8442 77.9479 38.7465 77.5432 38.6209C77.1384 38.4953 76.8174 38.2999 76.5662 38.0207C76.3149 37.7416 76.2033 37.3787 76.2033 36.9041C76.2033 36.4715 76.3149 36.0807 76.5662 35.7457C76.8174 35.4107 77.1524 35.1455 77.585 34.9501C78.0177 34.7687 78.5062 34.671 79.0645 34.671C79.9578 34.671 80.6975 34.8803 81.2558 35.2711C81.8141 35.6759 82.1212 36.2342 82.177 36.96H80.7115C80.6696 36.639 80.5021 36.3738 80.223 36.1644C79.9299 35.955 79.567 35.8434 79.1343 35.8434C78.6877 35.8434 78.3387 35.9271 78.0736 36.0946C77.7944 36.2621 77.6688 36.4994 77.6688 36.7785C77.6688 37.0019 77.7246 37.1554 77.8642 37.267C78.0038 37.3787 78.1713 37.4485 78.3806 37.4904C78.576 37.5322 78.911 37.5741 79.3716 37.6299C79.9857 37.6997 80.5021 37.7974 80.9209 37.937C81.3396 38.0766 81.6746 38.2859 81.9258 38.579C82.177 38.8721 82.3026 39.2629 82.3026 39.7654C82.3026 40.2121 82.1631 40.6168 81.9118 40.9518C81.6466 41.2868 81.2838 41.552 80.8371 41.7334C80.3765 41.9149 79.8601 41.9986 79.3018 41.9986C78.3387 41.9986 77.5571 41.7892 76.9709 41.3566C76.3847 40.9239 76.0776 40.3237 76.0637 39.5561H77.5153ZM84.3102 39.5561C84.3381 39.9329 84.5056 40.24 84.8266 40.4772C85.1477 40.7145 85.5664 40.8262 86.0828 40.8262C86.5294 40.8262 86.9063 40.7424 87.1854 40.5749C87.4646 40.4075 87.6181 40.1702 87.6181 39.8771C87.6181 39.6398 87.5483 39.4584 87.4227 39.3327C87.2831 39.2211 87.1157 39.1373 86.8923 39.0815C86.669 39.0257 86.334 38.9698 85.8874 38.914C85.2593 38.8442 84.7429 38.7465 84.3381 38.6209C83.9334 38.4953 83.6123 38.2999 83.3611 38.0207C83.1099 37.7416 82.9982 37.3787 82.9982 36.9041C82.9982 36.4715 83.1099 36.0807 83.3611 35.7457C83.6123 35.4107 83.9473 35.1455 84.38 34.9501C84.8127 34.7687 85.3012 34.671 85.8595 34.671C86.7528 34.671 87.4925 34.8803 88.0508 35.2711C88.6091 35.6759 88.9162 36.2342 88.972 36.96H87.5065C87.4646 36.639 87.2971 36.3738 87.018 36.1644C86.7248 35.955 86.362 35.8434 85.9293 35.8434C85.4826 35.8434 85.1337 35.9271 84.8685 36.0946C84.5894 36.2621 84.4638 36.4994 84.4638 36.7785C84.4638 37.0019 84.5196 37.1554 84.6592 37.267C84.7987 37.3787 84.9662 37.4485 85.1756 37.4904C85.371 37.5322 85.706 37.5741 86.1666 37.6299C86.7807 37.6997 87.2971 37.7974 87.7158 37.937C88.1345 38.0766 88.4695 38.2859 88.7208 38.579C88.972 38.8721 89.0976 39.2629 89.0976 39.7654C89.0976 40.2121 88.958 40.6168 88.7068 40.9518C88.4416 41.2868 88.0787 41.552 87.6321 41.7334C87.1715 41.9149 86.6551 41.9986 86.0968 41.9986C85.1337 41.9986 84.3521 41.7892 83.7659 41.3566C83.1797 40.9239 82.8726 40.3237 82.8586 39.5561H84.3102ZM95.6102 35.1316C96.1126 35.4247 96.5174 35.8434 96.8105 36.4017C97.0896 36.96 97.2432 37.602 97.2432 38.3418C97.2432 39.0675 97.0896 39.7096 96.8105 40.2679C96.5174 40.8262 96.1126 41.2449 95.6102 41.552C95.0937 41.859 94.5075 41.9986 93.8655 41.9986C93.3351 41.9986 92.8745 41.9009 92.4837 41.7055C92.0929 41.5101 91.7719 41.2449 91.5485 40.9099V44.7063H90.0411V34.7687H91.3531L91.5346 35.8294C92.1068 35.0757 92.8885 34.6849 93.8655 34.6849C94.5075 34.6849 95.0937 34.8385 95.6102 35.1316ZM95.1216 40.0585C95.5125 39.6119 95.7079 39.0396 95.7079 38.3418C95.7079 37.6439 95.5125 37.0716 95.1216 36.625C94.7308 36.1923 94.2284 35.969 93.6142 35.969C92.9862 35.969 92.4837 36.1923 92.1068 36.625C91.716 37.0577 91.5346 37.616 91.5346 38.3138C91.5346 39.0396 91.716 39.6119 92.1068 40.0585C92.4837 40.5052 92.9862 40.7285 93.6142 40.7285C94.2284 40.7285 94.7308 40.5052 95.1216 40.0585ZM99.6374 41.552C99.0791 41.2449 98.6604 40.8262 98.3533 40.2679C98.0463 39.7096 97.9067 39.0675 97.9067 38.3418C97.9067 37.6299 98.0463 37.0019 98.3533 36.4436C98.6604 35.8853 99.0791 35.4526 99.6374 35.1455C100.196 34.8385 100.824 34.6849 101.55 34.6849C102.261 34.6849 102.889 34.8385 103.448 35.1455C104.006 35.4526 104.425 35.8853 104.732 36.4436C105.039 37.0019 105.192 37.6299 105.192 38.3418C105.192 39.0675 105.039 39.7096 104.732 40.2679C104.425 40.8262 104.006 41.2449 103.448 41.552C102.889 41.859 102.261 41.9986 101.55 41.9986C100.824 41.9986 100.196 41.859 99.6374 41.552ZM103.071 40.0585C103.462 39.6119 103.657 39.0396 103.657 38.3418C103.657 37.6439 103.462 37.0856 103.071 36.639C102.68 36.1923 102.178 35.969 101.55 35.969C100.908 35.969 100.405 36.1923 100.028 36.639C99.6374 37.0856 99.456 37.6439 99.456 38.3418C99.456 39.0396 99.6374 39.6119 100.028 40.0585C100.405 40.5052 100.908 40.7145 101.55 40.7145C102.178 40.7145 102.68 40.5052 103.071 40.0585ZM110.075 34.7687V36.1784H109.405C108.777 36.1784 108.331 36.3877 108.052 36.7925C107.772 37.1973 107.633 37.7137 107.633 38.3278V41.9149H106.125V34.7687H107.465L107.633 35.8434C107.828 35.5084 108.093 35.2572 108.428 35.0618C108.749 34.8664 109.182 34.7687 109.74 34.7687H110.075ZM110.753 32.7728H112.261V34.7687H113.991V36.0946H112.261V39.8212C112.261 40.1004 112.316 40.3098 112.428 40.4214C112.54 40.5331 112.721 40.5889 113 40.5889H114.145V41.9149H112.693C112.009 41.9149 111.521 41.7613 111.214 41.4403C110.907 41.1332 110.753 40.6447 110.753 39.9748V32.7728Z" fill="white"/>
<path d="M63.3712 49.5532C63.7724 49.5532 64.1214 49.6317 64.4354 49.7887C64.7407 49.9457 64.9763 50.1638 65.142 50.443C65.3078 50.7221 65.395 51.0536 65.395 51.4287C65.395 51.8125 65.3078 52.144 65.142 52.4232C64.9676 52.711 64.732 52.9291 64.4267 53.0862C64.1214 53.2432 63.7724 53.313 63.3712 53.313H61.7835V55.6595H61.0246V49.5532H63.3712ZM61.7835 52.6151H63.3014C63.7027 52.6151 64.0167 52.5104 64.261 52.2923C64.4965 52.083 64.6186 51.7951 64.6186 51.4287C64.6186 51.0711 64.4965 50.7832 64.261 50.5738C64.0254 50.3645 63.7114 50.2511 63.3101 50.2511H61.7835V52.6151ZM69.5888 51.6468C69.9202 51.9783 70.086 52.4842 70.086 53.1821V55.6595H69.3707V53.2257C69.3707 52.7721 69.266 52.4232 69.0566 52.1789C68.8473 51.9347 68.542 51.8125 68.1581 51.8125C67.7394 51.8125 67.4166 51.9608 67.1724 52.2487C66.9281 52.5453 66.8147 52.9379 66.8147 53.4351V55.6595H66.0994V49.5532H66.8147V51.9434C66.9543 51.7166 67.1462 51.5247 67.3905 51.3764C67.6347 51.2368 67.9313 51.1583 68.2803 51.1583C68.8211 51.1583 69.2573 51.324 69.5888 51.6468ZM71.8963 55.424C71.5648 55.2321 71.3031 54.9704 71.1199 54.6215C70.928 54.2813 70.8408 53.8887 70.8408 53.4351C70.8408 52.9902 70.928 52.5976 71.1199 52.2487C71.3031 51.9085 71.5648 51.6381 71.8963 51.4462C72.2278 51.2542 72.6116 51.1583 73.0478 51.1583C73.4752 51.1583 73.8591 51.2542 74.1905 51.4462C74.522 51.6381 74.7837 51.9085 74.9756 52.2487C75.1588 52.5976 75.2548 52.9902 75.2548 53.4351C75.2548 53.8887 75.1588 54.2813 74.9756 54.6215C74.7837 54.9704 74.522 55.2321 74.1905 55.424C73.8591 55.6159 73.4752 55.7119 73.0478 55.7119C72.6116 55.7119 72.2278 55.6159 71.8963 55.424ZM73.8154 54.8657C74.0422 54.7261 74.2167 54.5342 74.3388 54.2813C74.461 54.037 74.522 53.7491 74.522 53.4351C74.522 53.121 74.461 52.8419 74.3388 52.5889C74.2167 52.3447 74.0422 52.144 73.8154 52.0045C73.5886 51.8649 73.3357 51.7951 73.0478 51.7951C72.7512 51.7951 72.4982 51.8649 72.2714 52.0045C72.0446 52.144 71.8789 52.3447 71.7567 52.5889C71.6346 52.8419 71.5735 53.121 71.5735 53.4351C71.5735 53.7491 71.6346 54.037 71.7567 54.2813C71.8789 54.5342 72.0446 54.7261 72.2714 54.8657C72.4982 55.0053 72.7512 55.0751 73.0478 55.0751C73.3357 55.0751 73.5886 55.0053 73.8154 54.8657ZM76.3205 51.8649H75.518V51.2106H76.3205V49.9632H77.0359V51.2106H78.1612V51.8649H77.0359V54.4906C77.0359 54.6825 77.0708 54.8134 77.1405 54.8919C77.2103 54.9704 77.3412 55.0053 77.5244 55.0053H78.3008V55.6595H77.4808C77.062 55.6595 76.7567 55.5723 76.5822 55.3804C76.4078 55.1972 76.3205 54.9006 76.3205 54.4993V51.8649ZM79.5974 55.424C79.2659 55.2321 79.0042 54.9704 78.821 54.6215C78.6291 54.2813 78.5419 53.8887 78.5419 53.4351C78.5419 52.9902 78.6291 52.5976 78.821 52.2487C79.0042 51.9085 79.2659 51.6381 79.5974 51.4462C79.9289 51.2542 80.3127 51.1583 80.7489 51.1583C81.1763 51.1583 81.5602 51.2542 81.8916 51.4462C82.2231 51.6381 82.4848 51.9085 82.6768 52.2487C82.8599 52.5976 82.9559 52.9902 82.9559 53.4351C82.9559 53.8887 82.8599 54.2813 82.6768 54.6215C82.4848 54.9704 82.2231 55.2321 81.8916 55.424C81.5602 55.6159 81.1763 55.7119 80.7489 55.7119C80.3127 55.7119 79.9289 55.6159 79.5974 55.424ZM81.5165 54.8657C81.7434 54.7261 81.9178 54.5342 82.0399 54.2813C82.1621 54.037 82.2231 53.7491 82.2231 53.4351C82.2231 53.121 82.1621 52.8419 82.0399 52.5889C81.9178 52.3447 81.7434 52.144 81.5165 52.0045C81.2897 51.8649 81.0368 51.7951 80.7489 51.7951C80.4523 51.7951 80.1993 51.8649 79.9725 52.0045C79.7457 52.144 79.58 52.3447 79.4578 52.5889C79.3357 52.8419 79.2746 53.121 79.2746 53.4351C79.2746 53.7491 79.3357 54.037 79.4578 54.2813C79.58 54.5342 79.7457 54.7261 79.9725 54.8657C80.1993 55.0053 80.4523 55.0751 80.7489 55.0751C81.0368 55.0751 81.2897 55.0053 81.5165 54.8657ZM89.4003 51.4287C89.7231 51.6119 89.976 51.8736 90.1592 52.2138C90.3424 52.5627 90.4384 52.964 90.4384 53.4351C90.4384 53.8887 90.3424 54.2813 90.1592 54.6215C89.976 54.9704 89.7231 55.2321 89.4003 55.424C89.0688 55.6159 88.7024 55.7119 88.3011 55.7119C87.9348 55.7119 87.6294 55.6508 87.3765 55.52C87.1148 55.3891 86.9141 55.2059 86.7746 54.9791V57.4042H86.0592V51.2106H86.6786L86.7746 51.9259C87.1409 51.42 87.6556 51.1583 88.3011 51.1583C88.7111 51.1583 89.0775 51.2542 89.4003 51.4287ZM89.2956 54.6215C89.566 54.3161 89.7056 53.9236 89.7056 53.4351C89.7056 52.9553 89.566 52.5627 89.2956 52.2574C89.0252 51.9521 88.6675 51.7951 88.2314 51.7951C87.9435 51.7951 87.6905 51.8649 87.4637 52.0045C87.2369 52.144 87.0712 52.3359 86.949 52.5802C86.8269 52.8244 86.7658 53.1036 86.7658 53.4176C86.7658 53.7404 86.8269 54.0283 86.949 54.2813C87.0712 54.5342 87.2369 54.7261 87.4637 54.8657C87.6905 55.0053 87.9435 55.0751 88.2314 55.0751C88.6675 55.0751 89.0252 54.9268 89.2956 54.6215ZM95.4168 55.0053V55.6595H95.0243C94.7364 55.6595 94.5358 55.6072 94.4136 55.4851C94.2915 55.3717 94.2217 55.1972 94.2217 54.9704C93.8728 55.4676 93.3756 55.7119 92.73 55.7119C92.2328 55.7119 91.8315 55.5985 91.5349 55.363C91.2383 55.1361 91.09 54.8134 91.09 54.4121C91.09 53.9672 91.2383 53.627 91.5437 53.3827C91.849 53.1472 92.2939 53.0251 92.8783 53.0251H94.1868V52.7198C94.1868 52.4319 94.0822 52.2051 93.8902 52.0393C93.6983 51.8823 93.4279 51.7951 93.079 51.7951C92.7649 51.7951 92.5119 51.8649 92.3113 52.0045C92.1107 52.144 91.9885 52.3185 91.9449 52.5453H91.2296C91.282 52.1091 91.4739 51.7689 91.8054 51.5247C92.1368 51.2804 92.573 51.1583 93.1139 51.1583C93.6809 51.1583 94.1171 51.2979 94.4311 51.577C94.7451 51.8562 94.9022 52.2487 94.9022 52.7634V54.6825C94.9022 54.9006 94.9981 55.0053 95.1987 55.0053H95.4168ZM94.1868 53.627H92.8085C92.1456 53.627 91.8141 53.88 91.8141 54.3685C91.8141 54.5953 91.9013 54.7698 92.0758 54.9006C92.2502 55.0402 92.4858 55.1012 92.7824 55.1012C93.2185 55.1012 93.5588 54.9878 93.8117 54.761C94.056 54.5342 94.1868 54.2289 94.1868 53.8451V53.627ZM100.189 51.2106V55.4415C100.189 56.7849 99.4474 57.4566 97.9818 57.4566C97.4061 57.4566 96.935 57.3257 96.5687 57.064C96.2023 56.8023 95.9929 56.4359 95.9406 55.9474H96.6733C96.7257 56.2266 96.874 56.4446 97.1182 56.5929C97.3538 56.75 97.6591 56.8198 98.0342 56.8198C98.9938 56.8198 99.4735 56.3574 99.4735 55.4153V54.8919C99.1508 55.4415 98.6448 55.7119 97.947 55.7119C97.5282 55.7119 97.1618 55.6247 96.8391 55.4415C96.5163 55.267 96.2633 55.0053 96.0802 54.6564C95.897 54.3161 95.8097 53.9061 95.8097 53.4351C95.8097 52.9902 95.897 52.5976 96.0802 52.2487C96.2633 51.9085 96.5163 51.6381 96.8478 51.4462C97.1706 51.2542 97.537 51.1583 97.947 51.1583C98.3046 51.1583 98.6099 51.2368 98.8716 51.3764C99.1246 51.5159 99.3252 51.7166 99.4735 51.9783L99.5695 51.2106H100.189ZM98.7757 54.8744C99.0025 54.7349 99.1769 54.543 99.2991 54.2987C99.4212 54.0544 99.4823 53.7666 99.4823 53.4525C99.4823 53.1385 99.4212 52.8506 99.2991 52.5976C99.1769 52.3447 99.0025 52.144 98.7757 52.0045C98.5489 51.8649 98.2959 51.7951 98.0167 51.7951C97.5718 51.7951 97.2142 51.9521 96.9438 52.2574C96.6733 52.5627 96.5425 52.9553 96.5425 53.4351C96.5425 53.9236 96.6733 54.3161 96.9438 54.6215C97.2142 54.9268 97.5718 55.0751 98.0167 55.0751C98.2959 55.0751 98.5489 55.014 98.7757 54.8744ZM101.268 52.24C101.442 51.8998 101.695 51.6381 102.018 51.4462C102.332 51.2542 102.699 51.1583 103.117 51.1583C103.519 51.1583 103.885 51.2455 104.199 51.4113C104.513 51.5857 104.757 51.83 104.941 52.144C105.115 52.4668 105.211 52.8419 105.228 53.2693C105.228 53.3391 105.22 53.4351 105.211 53.5747H101.756V53.6357C101.765 54.0719 101.896 54.4208 102.158 54.6825C102.411 54.9442 102.742 55.0751 103.161 55.0751C103.475 55.0751 103.745 54.9966 103.972 54.8395C104.199 54.6825 104.347 54.4557 104.426 54.1678H105.15C105.063 54.6215 104.845 54.9966 104.496 55.2844C104.147 55.5723 103.719 55.7119 103.213 55.7119C102.768 55.7119 102.385 55.6247 102.053 55.4327C101.722 55.2408 101.46 54.9791 101.277 54.6302C101.094 54.2813 101.006 53.8887 101.006 53.4351C101.006 52.9815 101.094 52.5889 101.268 52.24ZM104.487 52.9815C104.452 52.6064 104.304 52.3098 104.059 52.1004C103.815 51.891 103.501 51.7864 103.126 51.7864C102.786 51.7864 102.489 51.8998 102.236 52.1179C101.975 52.3447 101.835 52.6325 101.8 52.9815H104.487Z" fill="white" fill-opacity="0.5"/>
</g>
<g filter="url(#filter2_b_355_4658)">
<rect x="18.5593" y="84.6166" width="289.616" height="49.7232" rx="8.72338" fill="url(#paint4_linear_355_4658)" fill-opacity="0.1"/>
<rect x="19.1572" y="85.2145" width="288.42" height="48.5276" rx="8.12555" stroke="url(#paint5_linear_355_4658)" strokeWidth="1.19565"/>
<path d="M46.0379 108.212C46.0379 104.923 46.0379 103.278 45.016 102.256C43.9939 101.234 42.349 101.234 39.0592 101.234H38.187C34.8972 101.234 33.2523 101.234 32.2303 102.256C31.2083 103.278 31.2083 104.923 31.2083 108.212L31.2083 111.702C31.2082 114.992 31.2082 116.636 32.2302 117.658C33.2522 118.68 34.8971 118.68 38.187 118.68H39.4955" stroke="#B9E567" strokeWidth="1.30851" strokeLinecap="round" strokeLinejoin="round"/>
<path d="M35.1338 105.595H42.1125M35.1338 109.957H40.804" stroke="#B9E567" strokeWidth="1.30851" strokeLinecap="round"/>
<path d="M42.8638 118.68H46.5951C47.3672 118.68 48.0202 118.156 47.6988 117.593C47.1838 116.69 46.0479 116.063 44.7294 116.063C43.411 116.063 42.2751 116.69 41.7601 117.593C41.4387 118.156 42.0917 118.68 42.8638 118.68Z" stroke="#B9E567" strokeWidth="1.30851" strokeLinejoin="round"/>
<path d="M44.7268 113.883C45.5703 113.883 46.254 113.199 46.254 112.356C46.254 111.513 45.5703 110.829 44.7268 110.829C43.8833 110.829 43.1995 111.513 43.1995 112.356C43.1995 113.199 43.8833 113.883 44.7268 113.883Z" stroke="#B9E567" strokeWidth="1.30851"/>
<path d="M61.3247 99.3147H64.4372C65.4281 99.3147 66.2935 99.524 67.0472 99.9288C67.7869 100.348 68.3592 100.92 68.764 101.646C69.1548 102.385 69.3641 103.237 69.3641 104.2C69.3641 105.163 69.1548 106.014 68.764 106.754C68.3592 107.494 67.7869 108.066 67.0472 108.471C66.2935 108.889 65.4281 109.085 64.4372 109.085H61.3247V99.3147ZM64.4372 107.689C65.484 107.689 66.2935 107.382 66.8658 106.754C67.4241 106.126 67.7172 105.274 67.7172 104.2C67.7172 103.139 67.4241 102.288 66.8658 101.66C66.2935 101.031 65.484 100.71 64.4372 100.71H62.9298V107.689H64.4372ZM74.2877 101.939V103.348H73.6178C72.9897 103.348 72.543 103.558 72.2639 103.962C71.9847 104.367 71.8452 104.884 71.8452 105.498V109.085H70.3378V101.939H71.6777L71.8452 103.013C72.0406 102.678 72.3058 102.427 72.6407 102.232C72.9618 102.036 73.3944 101.939 73.9527 101.939H74.2877ZM76.3752 99.3426C76.5427 99.5101 76.6404 99.7334 76.6404 99.9846C76.6404 100.25 76.5427 100.473 76.3752 100.641C76.1938 100.808 75.9705 100.892 75.7192 100.892C75.454 100.892 75.2307 100.808 75.0632 100.641C74.8818 100.473 74.798 100.25 74.798 99.9846C74.798 99.7334 74.8818 99.5101 75.0632 99.3426C75.2307 99.1751 75.454 99.0774 75.7192 99.0774C75.9705 99.0774 76.1938 99.1751 76.3752 99.3426ZM74.9655 101.939H76.4729V109.085H74.9655V101.939ZM76.9596 101.939H78.5786L80.5466 107.466L82.4867 101.939H84.0779L81.4399 109.085H79.5975L76.9596 101.939ZM85.9715 99.3426C86.139 99.5101 86.2367 99.7334 86.2367 99.9846C86.2367 100.25 86.139 100.473 85.9715 100.641C85.79 100.808 85.5667 100.892 85.3155 100.892C85.0503 100.892 84.827 100.808 84.6595 100.641C84.478 100.473 84.3943 100.25 84.3943 99.9846C84.3943 99.7334 84.478 99.5101 84.6595 99.3426C84.827 99.1751 85.0503 99.0774 85.3155 99.0774C85.5667 99.0774 85.79 99.1751 85.9715 99.3426ZM84.5618 101.939H86.0692V109.085H84.5618V101.939ZM93.1019 102.637C93.6322 103.167 93.9114 104.004 93.9114 105.149V109.085H92.39V105.233C92.39 104.563 92.2365 104.046 91.9573 103.683C91.6642 103.334 91.2455 103.153 90.6872 103.153C90.0871 103.153 89.6125 103.362 89.2775 103.781C88.9425 104.2 88.7751 104.758 88.7751 105.484V109.085H87.2677V101.939H88.5797L88.7471 102.874C89.2775 102.204 90.0452 101.855 91.0362 101.855C91.8736 101.855 92.5715 102.12 93.1019 102.637ZM101.94 101.939V108.792C101.94 109.797 101.633 110.578 101.047 111.137C100.446 111.695 99.5253 111.96 98.2831 111.96C97.3061 111.96 96.5245 111.751 95.9243 111.318C95.3102 110.885 94.9752 110.271 94.9194 109.476H96.4547C96.5384 109.88 96.7617 110.187 97.0967 110.411C97.4317 110.634 97.8644 110.732 98.3948 110.732C99.7626 110.732 100.446 110.076 100.446 108.736V107.94C99.9161 108.722 99.1485 109.113 98.1156 109.113C97.4596 109.113 96.8734 108.973 96.3709 108.68C95.8545 108.387 95.4497 107.968 95.1706 107.424C94.8775 106.88 94.7379 106.238 94.7379 105.484C94.7379 104.772 94.8775 104.144 95.1706 103.586C95.4637 103.041 95.8685 102.623 96.3849 102.315C96.8874 102.008 97.4736 101.855 98.1156 101.855C98.646 101.855 99.1205 101.967 99.5114 102.176C99.9022 102.399 100.209 102.692 100.46 103.055L100.628 101.939H101.94ZM99.8742 107.201C100.251 106.768 100.446 106.21 100.446 105.512C100.446 104.814 100.251 104.242 99.8742 103.795C99.4834 103.348 98.981 103.125 98.3668 103.125C97.7388 103.125 97.2363 103.348 96.8594 103.781C96.4686 104.228 96.2872 104.786 96.2872 105.484C96.2872 106.182 96.4686 106.754 96.8594 107.187C97.2363 107.633 97.7388 107.843 98.3668 107.843C98.981 107.843 99.4834 107.633 99.8742 107.201ZM106.426 99.3147H107.933V109.085H106.426V99.3147ZM110.541 99.3426C110.709 99.5101 110.807 99.7334 110.807 99.9846C110.807 100.25 110.709 100.473 110.541 100.641C110.36 100.808 110.137 100.892 109.885 100.892C109.62 100.892 109.397 100.808 109.229 100.641C109.048 100.473 108.964 100.25 108.964 99.9846C108.964 99.7334 109.048 99.5101 109.229 99.3426C109.397 99.1751 109.62 99.0774 109.885 99.0774C110.137 99.0774 110.36 99.1751 110.541 99.3426ZM109.132 101.939H110.639V109.085H109.132V101.939ZM117.351 108.471C116.765 108.945 116.025 109.169 115.132 109.169C114.42 109.169 113.792 109.029 113.261 108.722C112.717 108.415 112.298 107.982 112.005 107.424C111.712 106.866 111.572 106.224 111.572 105.498C111.572 104.772 111.712 104.144 112.019 103.586C112.312 103.041 112.731 102.623 113.275 102.315C113.82 102.008 114.448 101.855 115.173 101.855C116.067 101.855 116.792 102.092 117.365 102.567C117.923 103.041 118.286 103.669 118.425 104.479H116.876C116.765 104.074 116.569 103.753 116.262 103.502C115.955 103.265 115.578 103.139 115.132 103.139C114.517 103.139 114.029 103.362 113.666 103.795C113.303 104.242 113.122 104.8 113.122 105.498C113.122 106.21 113.303 106.782 113.666 107.229C114.029 107.675 114.517 107.885 115.132 107.885C115.592 107.885 115.983 107.773 116.29 107.522C116.597 107.27 116.792 106.935 116.89 106.517H118.425C118.286 107.354 117.923 107.996 117.351 108.471ZM119.4 103.6C119.693 103.041 120.098 102.623 120.628 102.315C121.158 102.008 121.759 101.855 122.442 101.855C123.126 101.855 123.727 101.994 124.257 102.274C124.787 102.553 125.192 102.958 125.499 103.46C125.806 103.976 125.96 104.577 125.974 105.261C125.974 105.456 125.96 105.637 125.932 105.833H120.544V105.917C120.572 106.545 120.768 107.033 121.13 107.396C121.479 107.759 121.954 107.94 122.54 107.94C123.001 107.94 123.392 107.843 123.713 107.619C124.02 107.396 124.229 107.089 124.341 106.684H125.848C125.709 107.41 125.36 108.01 124.787 108.471C124.215 108.945 123.503 109.169 122.652 109.169C121.898 109.169 121.256 109.029 120.698 108.722C120.14 108.415 119.721 107.996 119.414 107.438C119.107 106.894 118.967 106.251 118.967 105.526C118.967 104.8 119.107 104.158 119.4 103.6ZM124.438 104.73C124.369 104.214 124.159 103.809 123.81 103.516C123.461 103.223 123.029 103.069 122.498 103.069C121.996 103.069 121.577 103.223 121.214 103.53C120.851 103.837 120.656 104.228 120.6 104.73H124.438ZM132.747 102.637C133.278 103.167 133.557 104.004 133.557 105.149V109.085H132.036V105.233C132.036 104.563 131.882 104.046 131.603 103.683C131.31 103.334 130.891 103.153 130.333 103.153C129.733 103.153 129.258 103.362 128.923 103.781C128.588 104.2 128.421 104.758 128.421 105.484V109.085H126.913V101.939H128.225L128.393 102.874C128.923 102.204 129.691 101.855 130.682 101.855C131.519 101.855 132.217 102.12 132.747 102.637ZM140.162 108.471C139.576 108.945 138.836 109.169 137.943 109.169C137.231 109.169 136.603 109.029 136.072 108.722C135.528 108.415 135.109 107.982 134.816 107.424C134.523 106.866 134.383 106.224 134.383 105.498C134.383 104.772 134.523 104.144 134.83 103.586C135.123 103.041 135.542 102.623 136.086 102.315C136.631 102.008 137.259 101.855 137.984 101.855C138.878 101.855 139.604 102.092 140.176 102.567C140.734 103.041 141.097 103.669 141.237 104.479H139.687C139.576 104.074 139.38 103.753 139.073 103.502C138.766 103.265 138.389 103.139 137.943 103.139C137.328 103.139 136.84 103.362 136.477 103.795C136.114 104.242 135.933 104.8 135.933 105.498C135.933 106.21 136.114 106.782 136.477 107.229C136.84 107.675 137.328 107.885 137.943 107.885C138.403 107.885 138.794 107.773 139.101 107.522C139.408 107.27 139.604 106.935 139.701 106.517H141.237C141.097 107.354 140.734 107.996 140.162 108.471ZM142.211 103.6C142.504 103.041 142.909 102.623 143.439 102.315C143.969 102.008 144.57 101.855 145.254 101.855C145.937 101.855 146.538 101.994 147.068 102.274C147.598 102.553 148.003 102.958 148.31 103.46C148.617 103.976 148.771 104.577 148.785 105.261C148.785 105.456 148.771 105.637 148.743 105.833H143.355V105.917C143.383 106.545 143.579 107.033 143.942 107.396C144.291 107.759 144.765 107.94 145.351 107.94C145.812 107.94 146.203 107.843 146.524 107.619C146.831 107.396 147.04 107.089 147.152 106.684H148.659C148.52 107.41 148.171 108.01 147.598 108.471C147.026 108.945 146.314 109.169 145.463 109.169C144.709 109.169 144.067 109.029 143.509 108.722C142.951 108.415 142.532 107.996 142.225 107.438C141.918 106.894 141.778 106.251 141.778 105.526C141.778 104.8 141.918 104.158 142.211 103.6ZM147.249 104.73C147.18 104.214 146.97 103.809 146.621 103.516C146.272 103.223 145.84 103.069 145.309 103.069C144.807 103.069 144.388 103.223 144.025 103.53C143.662 103.837 143.467 104.228 143.411 104.73H147.249Z" fill="white"/>
<path d="M61.0246 116.723H64.8193V117.421H61.7835V119.462H64.2959V120.16H61.7835V122.83H61.0246V116.723ZM67.5239 118.381V119.078H67.1663C66.7388 119.078 66.4335 119.227 66.2503 119.506C66.0671 119.794 65.9799 120.143 65.9799 120.561V122.83H65.2646V118.381H65.8839L65.9799 119.052C66.102 118.852 66.2677 118.686 66.4771 118.564C66.6777 118.442 66.9569 118.381 67.3233 118.381H67.5239ZM68.821 122.594C68.4895 122.402 68.2278 122.14 68.0446 121.791C67.8527 121.451 67.7654 121.059 67.7654 120.605C67.7654 120.16 67.8527 119.768 68.0446 119.419C68.2278 119.078 68.4895 118.808 68.821 118.616C69.1525 118.424 69.5363 118.328 69.9725 118.328C70.3999 118.328 70.7837 118.424 71.1152 118.616C71.4467 118.808 71.7084 119.078 71.9003 119.419C72.0835 119.768 72.1795 120.16 72.1795 120.605C72.1795 121.059 72.0835 121.451 71.9003 121.791C71.7084 122.14 71.4467 122.402 71.1152 122.594C70.7837 122.786 70.3999 122.882 69.9725 122.882C69.5363 122.882 69.1525 122.786 68.821 122.594ZM70.7401 122.036C70.9669 121.896 71.1414 121.704 71.2635 121.451C71.3856 121.207 71.4467 120.919 71.4467 120.605C71.4467 120.291 71.3856 120.012 71.2635 119.759C71.1414 119.515 70.9669 119.314 70.7401 119.174C70.5133 119.035 70.2603 118.965 69.9725 118.965C69.6759 118.965 69.4229 119.035 69.1961 119.174C68.9693 119.314 68.8035 119.515 68.6814 119.759C68.5593 120.012 68.4982 120.291 68.4982 120.605C68.4982 120.919 68.5593 121.207 68.6814 121.451C68.8035 121.704 68.9693 121.896 69.1961 122.036C69.4229 122.175 69.6759 122.245 69.9725 122.245C70.2603 122.245 70.5133 122.175 70.7401 122.036ZM76.4804 118.817C76.8119 119.148 76.9776 119.654 76.9776 120.352V122.83H76.2623V120.396C76.2623 119.942 76.1576 119.593 75.9482 119.349C75.7389 119.105 75.4423 118.983 75.0585 118.983C74.6397 118.983 74.3082 119.131 74.0727 119.419C73.8285 119.715 73.7151 120.108 73.7151 120.605V122.83H72.9997V118.381H73.6191L73.7151 118.983C74.0465 118.546 74.535 118.328 75.1806 118.328C75.7214 118.328 76.1489 118.494 76.4804 118.817ZM78.1862 119.035H77.3836V118.381H78.1862V117.133H78.9015V118.381H80.0268V119.035H78.9015V121.661C78.9015 121.853 78.9364 121.983 79.0062 122.062C79.076 122.14 79.2068 122.175 79.39 122.175H80.1664V122.83H79.3464C78.9277 122.83 78.6224 122.742 78.4479 122.55C78.2734 122.367 78.1862 122.071 78.1862 121.669V119.035ZM87.1194 122.175V122.83H86.7269C86.439 122.83 86.2383 122.777 86.1162 122.655C85.9941 122.542 85.9243 122.367 85.9243 122.14C85.5754 122.638 85.0781 122.882 84.4326 122.882C83.9354 122.882 83.5341 122.768 83.2375 122.533C82.9409 122.306 82.7926 121.983 82.7926 121.582C82.7926 121.137 82.9409 120.797 83.2462 120.553C83.5515 120.317 83.9964 120.195 84.5809 120.195H85.8894V119.89C85.8894 119.602 85.7847 119.375 85.5928 119.209C85.4009 119.052 85.1305 118.965 84.7815 118.965C84.4675 118.965 84.2145 119.035 84.0139 119.174C83.8132 119.314 83.6911 119.488 83.6475 119.715H82.9322C82.9845 119.279 83.1764 118.939 83.5079 118.695C83.8394 118.45 84.2756 118.328 84.8164 118.328C85.3835 118.328 85.8196 118.468 86.1337 118.747C86.4477 119.026 86.6047 119.419 86.6047 119.933V121.853C86.6047 122.071 86.7007 122.175 86.9013 122.175H87.1194ZM85.8894 120.797H84.5111C83.8481 120.797 83.5166 121.05 83.5166 121.538C83.5166 121.765 83.6039 121.94 83.7784 122.071C83.9528 122.21 84.1883 122.271 84.4849 122.271C84.9211 122.271 85.2613 122.158 85.5143 121.931C85.7586 121.704 85.8894 121.399 85.8894 121.015V120.797ZM91.1499 118.817C91.4814 119.148 91.6472 119.654 91.6472 120.352V122.83H90.9319V120.396C90.9319 119.942 90.8272 119.593 90.6178 119.349C90.4085 119.105 90.1119 118.983 89.728 118.983C89.3093 118.983 88.9778 119.131 88.7423 119.419C88.498 119.715 88.3846 120.108 88.3846 120.605V122.83H87.6693V118.381H88.2887L88.3846 118.983C88.7161 118.546 89.2046 118.328 89.8502 118.328C90.391 118.328 90.8185 118.494 91.1499 118.817ZM96.7813 116.723V122.83H96.1619L96.066 122.114C95.6909 122.629 95.1849 122.882 94.5394 122.882C94.1207 122.882 93.7543 122.795 93.4315 122.611C93.1088 122.437 92.8558 122.175 92.6726 121.826C92.4894 121.486 92.4022 121.076 92.4022 120.605C92.4022 120.16 92.4894 119.768 92.6726 119.419C92.8558 119.078 93.1088 118.808 93.4402 118.616C93.763 118.424 94.1294 118.328 94.5394 118.328C94.897 118.328 95.2024 118.398 95.4641 118.529C95.717 118.66 95.9177 118.834 96.066 119.061V116.723H96.7813ZM95.3681 122.044C95.5949 121.905 95.7694 121.713 95.8915 121.469C96.0136 121.224 96.0747 120.937 96.0747 120.623C96.0747 120.308 96.0136 120.021 95.8915 119.768C95.7694 119.515 95.5949 119.314 95.3681 119.174C95.1413 119.035 94.8883 118.965 94.6092 118.965C94.1643 118.965 93.8066 119.122 93.5362 119.427C93.2658 119.733 93.1349 120.125 93.1349 120.605C93.1349 121.094 93.2658 121.486 93.5362 121.791C93.8066 122.097 94.1643 122.245 94.6092 122.245C94.8883 122.245 95.1413 122.184 95.3681 122.044ZM103.38 118.599C103.703 118.782 103.956 119.044 104.139 119.384C104.322 119.733 104.418 120.134 104.418 120.605C104.418 121.059 104.322 121.451 104.139 121.791C103.956 122.14 103.703 122.402 103.38 122.594C103.048 122.786 102.682 122.882 102.281 122.882C101.914 122.882 101.609 122.821 101.356 122.69C101.094 122.559 100.894 122.376 100.754 122.149L100.658 122.83H100.039V116.723H100.754V119.096C101.12 118.59 101.635 118.328 102.281 118.328C102.691 118.328 103.057 118.424 103.38 118.599ZM103.275 121.791C103.546 121.486 103.685 121.094 103.685 120.605C103.685 120.125 103.546 119.733 103.275 119.427C103.005 119.122 102.647 118.965 102.211 118.965C101.923 118.965 101.67 119.035 101.443 119.174C101.216 119.314 101.051 119.506 100.929 119.75C100.806 119.994 100.745 120.274 100.745 120.588C100.745 120.91 100.806 121.198 100.929 121.451C101.051 121.704 101.216 121.896 101.443 122.036C101.67 122.175 101.923 122.245 102.211 122.245C102.647 122.245 103.005 122.097 103.275 121.791ZM109.396 122.175V122.83H109.004C108.716 122.83 108.515 122.777 108.393 122.655C108.271 122.542 108.201 122.367 108.201 122.14C107.852 122.638 107.355 122.882 106.71 122.882C106.212 122.882 105.811 122.768 105.514 122.533C105.218 122.306 105.07 121.983 105.07 121.582C105.07 121.137 105.218 120.797 105.523 120.553C105.829 120.317 106.273 120.195 106.858 120.195H108.166V119.89C108.166 119.602 108.062 119.375 107.87 119.209C107.678 119.052 107.407 118.965 107.059 118.965C106.744 118.965 106.491 119.035 106.291 119.174C106.09 119.314 105.968 119.488 105.924 119.715H105.209C105.262 119.279 105.453 118.939 105.785 118.695C106.116 118.45 106.553 118.328 107.093 118.328C107.66 118.328 108.097 118.468 108.411 118.747C108.725 119.026 108.882 119.419 108.882 119.933V121.853C108.882 122.071 108.978 122.175 109.178 122.175H109.396ZM108.166 120.797H106.788C106.125 120.797 105.794 121.05 105.794 121.538C105.794 121.765 105.881 121.94 106.055 122.071C106.23 122.21 106.465 122.271 106.762 122.271C107.198 122.271 107.538 122.158 107.791 121.931C108.036 121.704 108.166 121.399 108.166 121.015V120.797ZM113.261 122.463C112.912 122.742 112.476 122.882 111.953 122.882C111.517 122.882 111.141 122.786 110.819 122.594C110.487 122.402 110.234 122.14 110.06 121.791C109.877 121.443 109.789 121.05 109.789 120.596C109.789 120.151 109.877 119.759 110.06 119.41C110.243 119.07 110.505 118.808 110.836 118.616C111.168 118.424 111.543 118.328 111.979 118.328C112.502 118.328 112.93 118.468 113.27 118.747C113.61 119.026 113.828 119.41 113.915 119.898H113.191C113.122 119.619 112.973 119.393 112.755 119.218C112.528 119.052 112.267 118.965 111.953 118.965C111.525 118.965 111.176 119.122 110.915 119.419C110.653 119.724 110.522 120.117 110.522 120.596C110.522 121.085 110.653 121.486 110.915 121.791C111.176 122.097 111.525 122.245 111.953 122.245C112.275 122.245 112.546 122.167 112.773 121.992C112.991 121.826 113.13 121.591 113.2 121.294H113.915C113.819 121.791 113.601 122.184 113.261 122.463ZM114.742 116.723H115.458V120.771L117.717 118.381H118.572L116.862 120.204L118.694 122.83H117.831L116.348 120.718L115.458 121.652V122.83H114.742V116.723Z" fill="white" fill-opacity="0.5"/>
</g>
<g filter="url(#filter3_b_355_4658)">
<rect x="18.5593" y="151.787" width="289.616" height="49.7232" rx="8.72338" fill="url(#paint6_linear_355_4658)" fill-opacity="0.1"/>
<rect x="19.1572" y="152.384" width="288.42" height="48.5276" rx="8.12555" stroke="url(#paint7_linear_355_4658)" strokeWidth="1.19565"/>
<path d="M46.2562 176.255V175.383C46.2562 172.093 46.2562 170.448 45.2342 169.426C44.2122 168.404 42.5673 168.404 39.2775 168.404H38.4053C35.1155 168.404 33.4706 168.404 32.4486 169.426C31.4266 170.448 31.4266 172.093 31.4265 175.383L31.4265 178.872C31.4265 182.162 31.4265 183.807 32.4484 184.829C33.4704 185.851 35.1154 185.851 38.4052 185.851" stroke="#B9E567" strokeWidth="1.30851" strokeLinecap="round" strokeLinejoin="round"/>
<path d="M35.3521 172.766H42.3307M35.3521 177.127H42.3307" stroke="#B9E567" strokeWidth="1.30851" strokeLinecap="round"/>
<path d="M40.5859 184.827V185.851H41.6095C41.9667 185.851 42.1452 185.851 42.3058 185.784C42.4663 185.718 42.5926 185.591 42.8451 185.339L47.0529 181.131C47.2911 180.893 47.4101 180.773 47.4738 180.645C47.595 180.401 47.595 180.114 47.4738 179.869C47.4101 179.741 47.2911 179.622 47.0529 179.384C46.8147 179.145 46.6956 179.026 46.5671 178.963C46.3227 178.842 46.0357 178.842 45.7913 178.963C45.6629 179.026 45.5437 179.145 45.3055 179.384L41.0977 183.592C40.8452 183.844 40.719 183.97 40.6525 184.131C40.5859 184.292 40.5859 184.47 40.5859 184.827Z" stroke="#B9E567" strokeWidth="1.30851" strokeLinejoin="round"/>
<path d="M61.3247 176.255V166.485H62.7902L67.5497 173.407V166.485H69.1269V176.255H67.6613L62.9019 169.332V176.255H61.3247ZM77.3132 174.943V176.255H76.5176C76.0431 176.255 75.7081 176.157 75.5127 175.962C75.3033 175.766 75.2056 175.487 75.2056 175.11C74.6613 175.934 73.8797 176.339 72.8468 176.339C72.0373 176.339 71.3953 176.157 70.9207 175.78C70.4322 175.417 70.1949 174.901 70.1949 174.245C70.1949 173.519 70.4462 172.947 70.9765 172.556C71.493 172.165 72.2467 171.956 73.2516 171.956H75.0521V171.523C75.0521 171.132 74.9125 170.811 74.6334 170.588C74.3542 170.365 73.9634 170.239 73.4749 170.239C73.0283 170.239 72.6654 170.337 72.3862 170.532C72.1071 170.728 71.9396 170.979 71.8838 171.286H70.4043C70.4741 170.574 70.7951 170.016 71.3534 169.625C71.9117 169.234 72.6375 169.025 73.5447 169.025C74.4938 169.025 75.2335 169.248 75.7639 169.695C76.2804 170.141 76.5455 170.783 76.5455 171.621V174.44C76.5455 174.775 76.6991 174.943 77.0201 174.943H77.3132ZM75.0521 173.073H73.1818C72.7073 173.073 72.3583 173.17 72.1071 173.352C71.8559 173.533 71.7302 173.798 71.7302 174.147C71.7302 174.454 71.8419 174.706 72.0792 174.887C72.3165 175.082 72.6375 175.166 73.0562 175.166C73.6703 175.166 74.1588 174.999 74.5078 174.664C74.8567 174.329 75.0381 173.882 75.0521 173.324V173.073ZM78.3157 170.435H77.0735V169.109H78.3157V167.113H79.8371V169.109H81.5539V170.435H79.8371V174.161C79.8371 174.44 79.8929 174.65 80.0046 174.761C80.1162 174.873 80.2977 174.929 80.5768 174.929H81.7213V176.255H80.2698C79.5859 176.255 79.0834 176.101 78.7763 175.78C78.4693 175.473 78.3157 174.985 78.3157 174.315V170.435ZM83.6609 166.513C83.8284 166.68 83.9261 166.903 83.9261 167.155C83.9261 167.42 83.8284 167.643 83.6609 167.811C83.4794 167.978 83.2561 168.062 83.0049 168.062C82.7397 168.062 82.5164 167.978 82.3489 167.811C82.1674 167.643 82.0837 167.42 82.0837 167.155C82.0837 166.903 82.1674 166.68 82.3489 166.513C82.5164 166.345 82.7397 166.247 83.0049 166.247C83.2561 166.247 83.4794 166.345 83.6609 166.513ZM82.2512 169.109H83.7586V176.255H82.2512V169.109ZM86.4226 175.892C85.8643 175.585 85.4456 175.166 85.1385 174.608C84.8314 174.05 84.6919 173.407 84.6919 172.682C84.6919 171.97 84.8314 171.342 85.1385 170.783C85.4456 170.225 85.8643 169.793 86.4226 169.485C86.9809 169.178 87.609 169.025 88.3347 169.025C89.0466 169.025 89.6747 169.178 90.233 169.485C90.7913 169.793 91.21 170.225 91.517 170.783C91.8241 171.342 91.9776 171.97 91.9776 172.682C91.9776 173.407 91.8241 174.05 91.517 174.608C91.21 175.166 90.7913 175.585 90.233 175.892C89.6747 176.199 89.0466 176.339 88.3347 176.339C87.609 176.339 86.9809 176.199 86.4226 175.892ZM89.8561 174.398C90.2469 173.952 90.4423 173.38 90.4423 172.682C90.4423 171.984 90.2469 171.426 89.8561 170.979C89.4653 170.532 88.9628 170.309 88.3347 170.309C87.6927 170.309 87.1902 170.532 86.8134 170.979C86.4226 171.426 86.2411 171.984 86.2411 172.682C86.2411 173.38 86.4226 173.952 86.8134 174.398C87.1902 174.845 87.6927 175.054 88.3347 175.054C88.9628 175.054 89.4653 174.845 89.8561 174.398ZM98.7448 169.806C99.2752 170.337 99.5543 171.174 99.5543 172.319V176.255H98.033V172.403C98.033 171.733 97.8794 171.216 97.6003 170.853C97.3072 170.504 96.8885 170.323 96.3302 170.323C95.73 170.323 95.2554 170.532 94.9205 170.951C94.5855 171.37 94.418 171.928 94.418 172.654V176.255H92.9106V169.109H94.2226L94.3901 170.044C94.9205 169.374 95.6881 169.025 96.6791 169.025C97.5165 169.025 98.2144 169.29 98.7448 169.806ZM107.485 174.943V176.255H106.69C106.215 176.255 105.88 176.157 105.685 175.962C105.475 175.766 105.378 175.487 105.378 175.11C104.833 175.934 104.052 176.339 103.019 176.339C102.209 176.339 101.567 176.157 101.093 175.78C100.604 175.417 100.367 174.901 100.367 174.245C100.367 173.519 100.618 172.947 101.149 172.556C101.665 172.165 102.419 171.956 103.424 171.956H105.224V171.523C105.224 171.132 105.084 170.811 104.805 170.588C104.526 170.365 104.135 170.239 103.647 170.239C103.2 170.239 102.837 170.337 102.558 170.532C102.279 170.728 102.112 170.979 102.056 171.286H100.576C100.646 170.574 100.967 170.016 101.525 169.625C102.084 169.234 102.809 169.025 103.717 169.025C104.666 169.025 105.406 169.248 105.936 169.695C106.452 170.141 106.718 170.783 106.718 171.621V174.44C106.718 174.775 106.871 174.943 107.192 174.943H107.485ZM105.224 173.073H103.354C102.879 173.073 102.53 173.17 102.279 173.352C102.028 173.533 101.902 173.798 101.902 174.147C101.902 174.454 102.014 174.706 102.251 174.887C102.488 175.082 102.809 175.166 103.228 175.166C103.842 175.166 104.331 174.999 104.68 174.664C105.029 174.329 105.21 173.882 105.224 173.324V173.073ZM108.027 166.485H109.535V176.255H108.027V166.485ZM115.435 166.513C115.602 166.68 115.7 166.903 115.7 167.155C115.7 167.42 115.602 167.643 115.435 167.811C115.253 167.978 115.03 168.062 114.779 168.062C114.513 168.062 114.29 167.978 114.123 167.811C113.941 167.643 113.857 167.42 113.857 167.155C113.857 166.903 113.941 166.68 114.123 166.513C114.29 166.345 114.513 166.247 114.779 166.247C115.03 166.247 115.253 166.345 115.435 166.513ZM114.025 169.109H115.532V176.255H114.025V169.109ZM123.668 166.485V176.255H122.356L122.174 175.18C121.602 175.962 120.82 176.339 119.843 176.339C119.187 176.339 118.601 176.199 118.099 175.906C117.582 175.613 117.177 175.194 116.898 174.636C116.605 174.077 116.466 173.435 116.466 172.682C116.466 171.956 116.605 171.328 116.898 170.77C117.191 170.211 117.596 169.793 118.113 169.485C118.615 169.178 119.201 169.025 119.843 169.025C120.36 169.025 120.82 169.123 121.211 169.318C121.602 169.513 121.909 169.765 122.16 170.1V166.485H123.668ZM121.602 174.412C121.979 173.98 122.174 173.407 122.174 172.71C122.174 171.998 121.979 171.426 121.602 170.979C121.211 170.532 120.709 170.309 120.095 170.309C119.467 170.309 118.964 170.532 118.587 170.979C118.196 171.426 118.015 171.984 118.015 172.682C118.015 173.394 118.196 173.966 118.587 174.412C118.964 174.859 119.467 175.068 120.095 175.068C120.709 175.068 121.211 174.859 121.602 174.412ZM125.029 170.77C125.322 170.211 125.727 169.793 126.257 169.485C126.788 169.178 127.388 169.025 128.072 169.025C128.756 169.025 129.356 169.164 129.886 169.444C130.417 169.723 130.821 170.127 131.128 170.63C131.436 171.146 131.589 171.747 131.603 172.43C131.603 172.626 131.589 172.807 131.561 173.003H126.174V173.086C126.202 173.715 126.397 174.203 126.76 174.566C127.109 174.929 127.583 175.11 128.169 175.11C128.63 175.11 129.021 175.013 129.342 174.789C129.649 174.566 129.858 174.259 129.97 173.854H131.477C131.338 174.58 130.989 175.18 130.417 175.641C129.844 176.115 129.133 176.339 128.281 176.339C127.527 176.339 126.885 176.199 126.327 175.892C125.769 175.585 125.35 175.166 125.043 174.608C124.736 174.063 124.596 173.421 124.596 172.696C124.596 171.97 124.736 171.328 125.029 170.77ZM130.068 171.9C129.998 171.384 129.789 170.979 129.44 170.686C129.091 170.393 128.658 170.239 128.128 170.239C127.625 170.239 127.206 170.393 126.844 170.7C126.481 171.007 126.285 171.398 126.229 171.9H130.068ZM138.377 169.806C138.907 170.337 139.186 171.174 139.186 172.319V176.255H137.665V172.403C137.665 171.733 137.511 171.216 137.232 170.853C136.939 170.504 136.52 170.323 135.962 170.323C135.362 170.323 134.887 170.532 134.552 170.951C134.217 171.37 134.05 171.928 134.05 172.654V176.255H132.543V169.109H133.855L134.022 170.044C134.552 169.374 135.32 169.025 136.311 169.025C137.148 169.025 137.846 169.29 138.377 169.806ZM140.739 170.435H139.496V169.109H140.739V167.113H142.26V169.109H143.977V170.435H142.26V174.161C142.26 174.44 142.316 174.65 142.427 174.761C142.539 174.873 142.721 174.929 143 174.929H144.144V176.255H142.693C142.009 176.255 141.506 176.101 141.199 175.78C140.892 175.473 140.739 174.985 140.739 174.315V170.435ZM146.084 166.513C146.251 166.68 146.349 166.903 146.349 167.155C146.349 167.42 146.251 167.643 146.084 167.811C145.902 167.978 145.679 168.062 145.428 168.062C145.163 168.062 144.939 167.978 144.772 167.811C144.59 167.643 144.507 167.42 144.507 167.155C144.507 166.903 144.59 166.68 144.772 166.513C144.939 166.345 145.163 166.247 145.428 166.247C145.679 166.247 145.902 166.345 146.084 166.513ZM144.674 169.109H146.181V176.255H144.674V169.109ZM147.84 170.435H146.598V169.109H147.84V167.113H149.362V169.109H151.079V170.435H149.362V174.161C149.362 174.44 149.418 174.65 149.529 174.761C149.641 174.873 149.822 174.929 150.102 174.929H151.246V176.255H149.795C149.111 176.255 148.608 176.101 148.301 175.78C147.994 175.473 147.84 174.985 147.84 174.315V170.435ZM152.669 169.109L154.665 174.622L156.605 169.109H158.21L154.972 177.371C154.805 177.804 154.651 178.139 154.512 178.362C154.372 178.586 154.191 178.767 153.995 178.879C153.786 178.99 153.507 179.046 153.172 179.046H151.553V177.72H152.613C152.893 177.72 153.102 177.678 153.214 177.595C153.325 177.511 153.437 177.302 153.562 176.995L153.856 176.311L151.064 169.109H152.669ZM167.499 175.641C166.913 176.115 166.173 176.339 165.279 176.339C164.568 176.339 163.94 176.199 163.409 175.892C162.865 175.585 162.446 175.152 162.153 174.594C161.86 174.036 161.72 173.394 161.72 172.668C161.72 171.942 161.86 171.314 162.167 170.756C162.46 170.211 162.879 169.793 163.423 169.485C163.967 169.178 164.596 169.025 165.321 169.025C166.215 169.025 166.94 169.262 167.513 169.737C168.071 170.211 168.434 170.839 168.573 171.649H167.024C166.913 171.244 166.717 170.923 166.41 170.672C166.103 170.435 165.726 170.309 165.279 170.309C164.665 170.309 164.177 170.532 163.814 170.965C163.451 171.412 163.27 171.97 163.27 172.668C163.27 173.38 163.451 173.952 163.814 174.398C164.177 174.845 164.665 175.054 165.279 175.054C165.74 175.054 166.131 174.943 166.438 174.692C166.745 174.44 166.94 174.105 167.038 173.687H168.573C168.434 174.524 168.071 175.166 167.499 175.641ZM176.342 174.943V176.255H175.546C175.072 176.255 174.737 176.157 174.542 175.962C174.332 175.766 174.234 175.487 174.234 175.11C173.69 175.934 172.909 176.339 171.876 176.339C171.066 176.339 170.424 176.157 169.95 175.78C169.461 175.417 169.224 174.901 169.224 174.245C169.224 173.519 169.475 172.947 170.005 172.556C170.522 172.165 171.276 171.956 172.28 171.956H174.081V171.523C174.081 171.132 173.941 170.811 173.662 170.588C173.383 170.365 172.992 170.239 172.504 170.239C172.057 170.239 171.694 170.337 171.415 170.532C171.136 170.728 170.968 170.979 170.913 171.286H169.433C169.503 170.574 169.824 170.016 170.382 169.625C170.941 169.234 171.666 169.025 172.574 169.025C173.523 169.025 174.262 169.248 174.793 169.695C175.309 170.141 175.574 170.783 175.574 171.621V174.44C175.574 174.775 175.728 174.943 176.049 174.943H176.342ZM174.081 173.073H172.211C171.736 173.073 171.387 173.17 171.136 173.352C170.885 173.533 170.759 173.798 170.759 174.147C170.759 174.454 170.871 174.706 171.108 174.887C171.345 175.082 171.666 175.166 172.085 175.166C172.699 175.166 173.188 174.999 173.537 174.664C173.886 174.329 174.067 173.882 174.081 173.324V173.073ZM180.834 169.109V170.518H180.164C179.536 170.518 179.089 170.728 178.81 171.132C178.531 171.537 178.391 172.054 178.391 172.668V176.255H176.884V169.109H178.224L178.391 170.183C178.587 169.848 178.852 169.597 179.187 169.402C179.508 169.206 179.941 169.109 180.499 169.109H180.834ZM188.108 166.485V176.255H186.796L186.614 175.18C186.042 175.962 185.26 176.339 184.283 176.339C183.627 176.339 183.041 176.199 182.539 175.906C182.022 175.613 181.618 175.194 181.338 174.636C181.045 174.077 180.906 173.435 180.906 172.682C180.906 171.956 181.045 171.328 181.338 170.77C181.632 170.211 182.036 169.793 182.553 169.485C183.055 169.178 183.641 169.025 184.283 169.025C184.8 169.025 185.26 169.123 185.651 169.318C186.042 169.513 186.349 169.765 186.6 170.1V166.485H188.108ZM186.042 174.412C186.419 173.98 186.614 173.407 186.614 172.71C186.614 171.998 186.419 171.426 186.042 170.979C185.651 170.532 185.149 170.309 184.535 170.309C183.907 170.309 183.404 170.532 183.027 170.979C182.637 171.426 182.455 171.984 182.455 172.682C182.455 173.394 182.637 173.966 183.027 174.412C183.404 174.859 183.907 175.068 184.535 175.068C185.149 175.068 185.651 174.859 186.042 174.412Z" fill="white"/>
<path d="M61.0246 183.893H64.8193V184.591H61.7835V186.632H64.2959V187.33H61.7835V189.999H61.0246V183.893ZM67.5239 185.551V186.248H67.1663C66.7388 186.248 66.4335 186.397 66.2503 186.676C66.0671 186.964 65.9799 187.313 65.9799 187.731V189.999H65.2646V185.551H65.8839L65.9799 186.222C66.102 186.022 66.2677 185.856 66.4771 185.734C66.6777 185.612 66.9569 185.551 67.3233 185.551H67.5239ZM68.821 189.764C68.4895 189.572 68.2278 189.31 68.0446 188.961C67.8527 188.621 67.7654 188.229 67.7654 187.775C67.7654 187.33 67.8527 186.938 68.0446 186.589C68.2278 186.248 68.4895 185.978 68.821 185.786C69.1525 185.594 69.5363 185.498 69.9725 185.498C70.3999 185.498 70.7837 185.594 71.1152 185.786C71.4467 185.978 71.7084 186.248 71.9003 186.589C72.0835 186.938 72.1795 187.33 72.1795 187.775C72.1795 188.229 72.0835 188.621 71.9003 188.961C71.7084 189.31 71.4467 189.572 71.1152 189.764C70.7837 189.956 70.3999 190.052 69.9725 190.052C69.5363 190.052 69.1525 189.956 68.821 189.764ZM70.7401 189.206C70.9669 189.066 71.1414 188.874 71.2635 188.621C71.3856 188.377 71.4467 188.089 71.4467 187.775C71.4467 187.461 71.3856 187.182 71.2635 186.929C71.1414 186.685 70.9669 186.484 70.7401 186.344C70.5133 186.205 70.2603 186.135 69.9725 186.135C69.6759 186.135 69.4229 186.205 69.1961 186.344C68.9693 186.484 68.8035 186.685 68.6814 186.929C68.5593 187.182 68.4982 187.461 68.4982 187.775C68.4982 188.089 68.5593 188.377 68.6814 188.621C68.8035 188.874 68.9693 189.066 69.1961 189.206C69.4229 189.345 69.6759 189.415 69.9725 189.415C70.2603 189.415 70.5133 189.345 70.7401 189.206ZM76.4804 185.987C76.8119 186.318 76.9776 186.824 76.9776 187.522V189.999H76.2623V187.566C76.2623 187.112 76.1576 186.763 75.9482 186.519C75.7389 186.275 75.4423 186.152 75.0585 186.152C74.6397 186.152 74.3082 186.301 74.0727 186.589C73.8285 186.885 73.7151 187.278 73.7151 187.775V189.999H72.9997V185.551H73.6191L73.7151 186.152C74.0465 185.716 74.535 185.498 75.1806 185.498C75.7214 185.498 76.1489 185.664 76.4804 185.987ZM78.1862 186.205H77.3836V185.551H78.1862V184.303H78.9015V185.551H80.0268V186.205H78.9015V188.831C78.9015 189.022 78.9364 189.153 79.0062 189.232C79.076 189.31 79.2068 189.345 79.39 189.345H80.1664V189.999H79.3464C78.9277 189.999 78.6224 189.912 78.4479 189.72C78.2734 189.537 78.1862 189.241 78.1862 188.839V186.205ZM87.1194 189.345V189.999H86.7269C86.439 189.999 86.2383 189.947 86.1162 189.825C85.9941 189.712 85.9243 189.537 85.9243 189.31C85.5754 189.808 85.0781 190.052 84.4326 190.052C83.9354 190.052 83.5341 189.938 83.2375 189.703C82.9409 189.476 82.7926 189.153 82.7926 188.752C82.7926 188.307 82.9409 187.967 83.2462 187.723C83.5515 187.487 83.9964 187.365 84.5809 187.365H85.8894V187.06C85.8894 186.772 85.7847 186.545 85.5928 186.379C85.4009 186.222 85.1305 186.135 84.7815 186.135C84.4675 186.135 84.2145 186.205 84.0139 186.344C83.8132 186.484 83.6911 186.658 83.6475 186.885H82.9322C82.9845 186.449 83.1764 186.109 83.5079 185.865C83.8394 185.62 84.2756 185.498 84.8164 185.498C85.3835 185.498 85.8196 185.638 86.1337 185.917C86.4477 186.196 86.6047 186.589 86.6047 187.103V189.022C86.6047 189.241 86.7007 189.345 86.9013 189.345H87.1194ZM85.8894 187.967H84.5111C83.8481 187.967 83.5166 188.22 83.5166 188.708C83.5166 188.935 83.6039 189.11 83.7784 189.241C83.9528 189.38 84.1883 189.441 84.4849 189.441C84.9211 189.441 85.2613 189.328 85.5143 189.101C85.7586 188.874 85.8894 188.569 85.8894 188.185V187.967ZM91.1499 185.987C91.4814 186.318 91.6472 186.824 91.6472 187.522V189.999H90.9319V187.566C90.9319 187.112 90.8272 186.763 90.6178 186.519C90.4085 186.275 90.1119 186.152 89.728 186.152C89.3093 186.152 88.9778 186.301 88.7423 186.589C88.498 186.885 88.3846 187.278 88.3846 187.775V189.999H87.6693V185.551H88.2887L88.3846 186.152C88.7161 185.716 89.2046 185.498 89.8502 185.498C90.391 185.498 90.8185 185.664 91.1499 185.987ZM96.7813 183.893V189.999H96.1619L96.066 189.284C95.6909 189.799 95.1849 190.052 94.5394 190.052C94.1207 190.052 93.7543 189.965 93.4315 189.781C93.1088 189.607 92.8558 189.345 92.6726 188.996C92.4894 188.656 92.4022 188.246 92.4022 187.775C92.4022 187.33 92.4894 186.938 92.6726 186.589C92.8558 186.248 93.1088 185.978 93.4402 185.786C93.763 185.594 94.1294 185.498 94.5394 185.498C94.897 185.498 95.2024 185.568 95.4641 185.699C95.717 185.83 95.9177 186.004 96.066 186.231V183.893H96.7813ZM95.3681 189.214C95.5949 189.075 95.7694 188.883 95.8915 188.639C96.0136 188.394 96.0747 188.106 96.0747 187.792C96.0747 187.478 96.0136 187.191 95.8915 186.938C95.7694 186.685 95.5949 186.484 95.3681 186.344C95.1413 186.205 94.8883 186.135 94.6092 186.135C94.1643 186.135 93.8066 186.292 93.5362 186.597C93.2658 186.903 93.1349 187.295 93.1349 187.775C93.1349 188.263 93.2658 188.656 93.5362 188.961C93.8066 189.267 94.1643 189.415 94.6092 189.415C94.8883 189.415 95.1413 189.354 95.3681 189.214ZM103.38 185.769C103.703 185.952 103.956 186.214 104.139 186.554C104.322 186.903 104.418 187.304 104.418 187.775C104.418 188.229 104.322 188.621 104.139 188.961C103.956 189.31 103.703 189.572 103.38 189.764C103.048 189.956 102.682 190.052 102.281 190.052C101.914 190.052 101.609 189.991 101.356 189.86C101.094 189.729 100.894 189.546 100.754 189.319L100.658 189.999H100.039V183.893H100.754V186.266C101.12 185.76 101.635 185.498 102.281 185.498C102.691 185.498 103.057 185.594 103.38 185.769ZM103.275 188.961C103.546 188.656 103.685 188.263 103.685 187.775C103.685 187.295 103.546 186.903 103.275 186.597C103.005 186.292 102.647 186.135 102.211 186.135C101.923 186.135 101.67 186.205 101.443 186.344C101.216 186.484 101.051 186.676 100.929 186.92C100.806 187.164 100.745 187.444 100.745 187.758C100.745 188.08 100.806 188.368 100.929 188.621C101.051 188.874 101.216 189.066 101.443 189.206C101.67 189.345 101.923 189.415 102.211 189.415C102.647 189.415 103.005 189.267 103.275 188.961ZM109.396 189.345V189.999H109.004C108.716 189.999 108.515 189.947 108.393 189.825C108.271 189.712 108.201 189.537 108.201 189.31C107.852 189.808 107.355 190.052 106.71 190.052C106.212 190.052 105.811 189.938 105.514 189.703C105.218 189.476 105.07 189.153 105.07 188.752C105.07 188.307 105.218 187.967 105.523 187.723C105.829 187.487 106.273 187.365 106.858 187.365H108.166V187.06C108.166 186.772 108.062 186.545 107.87 186.379C107.678 186.222 107.407 186.135 107.059 186.135C106.744 186.135 106.491 186.205 106.291 186.344C106.09 186.484 105.968 186.658 105.924 186.885H105.209C105.262 186.449 105.453 186.109 105.785 185.865C106.116 185.62 106.553 185.498 107.093 185.498C107.66 185.498 108.097 185.638 108.411 185.917C108.725 186.196 108.882 186.589 108.882 187.103V189.022C108.882 189.241 108.978 189.345 109.178 189.345H109.396ZM108.166 187.967H106.788C106.125 187.967 105.794 188.22 105.794 188.708C105.794 188.935 105.881 189.11 106.055 189.241C106.23 189.38 106.465 189.441 106.762 189.441C107.198 189.441 107.538 189.328 107.791 189.101C108.036 188.874 108.166 188.569 108.166 188.185V187.967ZM113.261 189.633C112.912 189.912 112.476 190.052 111.953 190.052C111.517 190.052 111.141 189.956 110.819 189.764C110.487 189.572 110.234 189.31 110.06 188.961C109.877 188.612 109.789 188.22 109.789 187.766C109.789 187.321 109.877 186.929 110.06 186.58C110.243 186.24 110.505 185.978 110.836 185.786C111.168 185.594 111.543 185.498 111.979 185.498C112.502 185.498 112.93 185.638 113.27 185.917C113.61 186.196 113.828 186.58 113.915 187.068H113.191C113.122 186.789 112.973 186.562 112.755 186.388C112.528 186.222 112.267 186.135 111.953 186.135C111.525 186.135 111.176 186.292 110.915 186.589C110.653 186.894 110.522 187.286 110.522 187.766C110.522 188.255 110.653 188.656 110.915 188.961C111.176 189.267 111.525 189.415 111.953 189.415C112.275 189.415 112.546 189.336 112.773 189.162C112.991 188.996 113.13 188.761 113.2 188.464H113.915C113.819 188.961 113.601 189.354 113.261 189.633ZM114.742 183.893H115.458V187.941L117.717 185.551H118.572L116.862 187.374L118.694 189.999H117.831L116.348 187.888L115.458 188.822V189.999H114.742V183.893Z" fill="white" fill-opacity="0.5"/>
</g>
<g filter="url(#filter4_b_355_4658)">
<rect x="18.5593" y="218.957" width="289.616" height="49.7232" rx="8.72338" fill="url(#paint8_linear_355_4658)" fill-opacity="0.1"/>
<rect x="19.1572" y="219.554" width="288.42" height="48.5276" rx="8.12555" stroke="url(#paint9_linear_355_4658)" strokeWidth="1.19565"/>
<path d="M30.772 244.297C30.772 240.596 30.772 238.746 32.0495 237.596C33.327 236.446 35.3831 236.446 39.4953 236.446C43.6075 236.446 45.6637 236.446 46.9412 237.596C48.2187 238.746 48.2187 240.596 48.2187 244.297C48.2187 247.998 48.2187 249.849 46.9412 250.998C45.6637 252.148 43.6075 252.148 39.4953 252.148C35.3831 252.148 33.327 252.148 32.0495 250.998C30.772 249.849 30.772 247.998 30.772 244.297Z" stroke="#B9E567" strokeWidth="1.30851" strokeLinecap="round" strokeLinejoin="round"/>
<path d="M36.3551 240.808H35.6572C34.9993 240.808 34.6703 240.808 34.4659 241.012C34.2615 241.217 34.2615 241.546 34.2615 242.204V242.901C34.2615 243.559 34.2615 243.888 34.4659 244.093C34.6703 244.297 34.9993 244.297 35.6572 244.297H36.3551C37.013 244.297 37.342 244.297 37.5464 244.093C37.7508 243.888 37.7508 243.559 37.7508 242.901V242.204C37.7508 241.546 37.7508 241.217 37.5464 241.012C37.342 240.808 37.013 240.808 36.3551 240.808Z" stroke="#B9E567" strokeWidth="1.30851" strokeLinejoin="round"/>
<path d="M34.2615 247.787H37.7508" stroke="#B9E567" strokeWidth="1.30851" strokeLinecap="round" strokeLinejoin="round"/>
<path d="M41.24 240.808H44.7293" stroke="#B9E567" strokeWidth="1.30851" strokeLinecap="round" strokeLinejoin="round"/>
<path d="M41.24 244.297H44.7293" stroke="#B9E567" strokeWidth="1.30851" strokeLinecap="round" strokeLinejoin="round"/>
<path d="M41.24 247.787H44.7293" stroke="#B9E567" strokeWidth="1.30851" strokeLinecap="round" strokeLinejoin="round"/>
<path d="M65.1769 233.655C65.8469 233.655 66.447 233.794 66.9635 234.046C67.4659 234.297 67.8707 234.66 68.1498 235.134C68.429 235.609 68.5825 236.153 68.5825 236.767C68.5825 237.423 68.4011 237.996 68.0661 238.484C67.7172 238.987 67.2566 239.335 66.6843 239.531L68.75 243.425H66.9635L65.1071 239.88H62.9298V243.425H61.3247V233.655H65.1769ZM62.9298 238.484H65.0513C65.6235 238.484 66.0841 238.331 66.4191 238.023C66.7541 237.716 66.9355 237.298 66.9355 236.767C66.9355 236.251 66.7541 235.832 66.4191 235.525C66.0841 235.218 65.6235 235.051 65.0513 235.051H62.9298V238.484ZM69.4421 237.94C69.7352 237.381 70.14 236.963 70.6703 236.656C71.2007 236.349 71.8009 236.195 72.4848 236.195C73.1687 236.195 73.7689 236.335 74.2993 236.614C74.8297 236.893 75.2344 237.298 75.5415 237.8C75.8485 238.317 76.0021 238.917 76.016 239.601C76.016 239.796 76.0021 239.978 75.9742 240.173H70.5866V240.257C70.6145 240.885 70.8099 241.373 71.1728 241.736C71.5218 242.099 71.9963 242.28 72.5825 242.28C73.0431 242.28 73.4339 242.183 73.7549 241.959C74.062 241.736 74.2714 241.429 74.383 241.024H75.8904C75.7508 241.75 75.4019 242.35 74.8297 242.811C74.2574 243.285 73.5456 243.509 72.6942 243.509C71.9405 243.509 71.2984 243.369 70.7401 243.062C70.1818 242.755 69.7631 242.336 69.4561 241.778C69.149 241.234 69.0094 240.592 69.0094 239.866C69.0094 239.14 69.149 238.498 69.4421 237.94ZM74.4807 239.07C74.4109 238.554 74.2016 238.149 73.8526 237.856C73.5037 237.563 73.071 237.409 72.5406 237.409C72.0382 237.409 71.6195 237.563 71.2566 237.87C70.8937 238.177 70.6983 238.568 70.6424 239.07H74.4807ZM78.115 241.066C78.1429 241.443 78.3104 241.75 78.6314 241.987C78.9524 242.225 79.3712 242.336 79.8876 242.336C80.3342 242.336 80.7111 242.253 80.9902 242.085C81.2694 241.918 81.4229 241.68 81.4229 241.387C81.4229 241.15 81.3531 240.968 81.2275 240.843C81.0879 240.731 80.9204 240.647 80.6971 240.592C80.4738 240.536 80.1388 240.48 79.6922 240.424C79.0641 240.354 78.5477 240.257 78.1429 240.131C77.7381 240.005 77.4171 239.81 77.1659 239.531C76.9146 239.252 76.803 238.889 76.803 238.414C76.803 237.982 76.9146 237.591 77.1659 237.256C77.4171 236.921 77.7521 236.656 78.1848 236.46C78.6175 236.279 79.106 236.181 79.6643 236.181C80.5575 236.181 81.2973 236.39 81.8556 236.781C82.4139 237.186 82.7209 237.744 82.7768 238.47H81.3112C81.2694 238.149 81.1019 237.884 80.8227 237.675C80.5296 237.465 80.1667 237.354 79.734 237.354C79.2874 237.354 78.9385 237.437 78.6733 237.605C78.3941 237.772 78.2685 238.01 78.2685 238.289C78.2685 238.512 78.3243 238.666 78.4639 238.777C78.6035 238.889 78.771 238.959 78.9803 239C79.1757 239.042 79.5107 239.084 79.9713 239.14C80.5854 239.21 81.1019 239.308 81.5206 239.447C81.9393 239.587 82.2743 239.796 82.5255 240.089C82.7768 240.382 82.9024 240.773 82.9024 241.276C82.9024 241.722 82.7628 242.127 82.5116 242.462C82.2464 242.797 81.8835 243.062 81.4368 243.244C80.9763 243.425 80.4598 243.509 79.9015 243.509C78.9385 243.509 78.1569 243.299 77.5706 242.867C76.9844 242.434 76.6774 241.834 76.6634 241.066H78.115ZM85.2556 233.683C85.4231 233.85 85.5208 234.074 85.5208 234.325C85.5208 234.59 85.4231 234.813 85.2556 234.981C85.0742 235.148 84.8508 235.232 84.5996 235.232C84.3344 235.232 84.1111 235.148 83.9436 234.981C83.7622 234.813 83.6784 234.59 83.6784 234.325C83.6784 234.074 83.7622 233.85 83.9436 233.683C84.1111 233.515 84.3344 233.418 84.5996 233.418C84.8508 233.418 85.0742 233.515 85.2556 233.683ZM83.8459 236.279H85.3533V243.425H83.8459V236.279ZM93.4886 233.655V243.425H92.1766L91.9952 242.35C91.4229 243.132 90.6413 243.509 89.6643 243.509C89.0083 243.509 88.4221 243.369 87.9196 243.076C87.4032 242.783 86.9984 242.364 86.7193 241.806C86.4262 241.248 86.2866 240.606 86.2866 239.852C86.2866 239.126 86.4262 238.498 86.7193 237.94C87.0124 237.381 87.4172 236.963 87.9336 236.656C88.436 236.349 89.0223 236.195 89.6643 236.195C90.1807 236.195 90.6413 236.293 91.0321 236.488C91.4229 236.684 91.73 236.935 91.9812 237.27V233.655H93.4886ZM91.4229 241.583C91.7998 241.15 91.9952 240.578 91.9952 239.88C91.9952 239.168 91.7998 238.596 91.4229 238.149C91.0321 237.702 90.5297 237.479 89.9155 237.479C89.2874 237.479 88.785 237.702 88.4081 238.149C88.0173 238.596 87.8359 239.154 87.8359 239.852C87.8359 240.564 88.0173 241.136 88.4081 241.583C88.785 242.029 89.2874 242.239 89.9155 242.239C90.5297 242.239 91.0321 242.029 91.4229 241.583ZM94.85 237.94C95.1431 237.381 95.5479 236.963 96.0783 236.656C96.6087 236.349 97.2088 236.195 97.8927 236.195C98.5766 236.195 99.1768 236.335 99.7072 236.614C100.238 236.893 100.642 237.298 100.949 237.8C101.256 238.317 101.41 238.917 101.424 239.601C101.424 239.796 101.41 239.978 101.382 240.173H95.9945V240.257C96.0224 240.885 96.2178 241.373 96.5807 241.736C96.9297 242.099 97.4042 242.28 97.9904 242.28C98.451 242.28 98.8418 242.183 99.1629 241.959C99.4699 241.736 99.6793 241.429 99.7909 241.024H101.298C101.159 241.75 100.81 242.35 100.238 242.811C99.6653 243.285 98.9535 243.509 98.1021 243.509C97.3484 243.509 96.7064 243.369 96.1481 243.062C95.5898 242.755 95.171 242.336 94.864 241.778C94.5569 241.234 94.4173 240.592 94.4173 239.866C94.4173 239.14 94.5569 238.498 94.85 237.94ZM99.8886 239.07C99.8189 238.554 99.6095 238.149 99.2606 237.856C98.9116 237.563 98.4789 237.409 97.9486 237.409C97.4461 237.409 97.0274 237.563 96.6645 237.87C96.3016 238.177 96.1062 238.568 96.0504 239.07H99.8886ZM108.198 236.977C108.728 237.507 109.007 238.344 109.007 239.489V243.425H107.486V239.573C107.486 238.903 107.332 238.386 107.053 238.023C106.76 237.675 106.341 237.493 105.783 237.493C105.183 237.493 104.708 237.702 104.373 238.121C104.038 238.54 103.871 239.098 103.871 239.824V243.425H102.363V236.279H103.675L103.843 237.214C104.373 236.544 105.141 236.195 106.132 236.195C106.969 236.195 107.667 236.46 108.198 236.977ZM115.612 242.811C115.026 243.285 114.286 243.509 113.393 243.509C112.681 243.509 112.053 243.369 111.523 243.062C110.978 242.755 110.56 242.322 110.266 241.764C109.973 241.206 109.834 240.564 109.834 239.838C109.834 239.112 109.973 238.484 110.28 237.926C110.573 237.381 110.992 236.963 111.537 236.656C112.081 236.349 112.709 236.195 113.435 236.195C114.328 236.195 115.054 236.432 115.626 236.907C116.184 237.381 116.547 238.01 116.687 238.819H115.138C115.026 238.414 114.83 238.093 114.523 237.842C114.216 237.605 113.839 237.479 113.393 237.479C112.779 237.479 112.29 237.702 111.927 238.135C111.564 238.582 111.383 239.14 111.383 239.838C111.383 240.55 111.564 241.122 111.927 241.569C112.29 242.015 112.779 242.225 113.393 242.225C113.853 242.225 114.244 242.113 114.551 241.862C114.858 241.611 115.054 241.276 115.151 240.857H116.687C116.547 241.694 116.184 242.336 115.612 242.811ZM117.661 237.94C117.954 237.381 118.359 236.963 118.889 236.656C119.42 236.349 120.02 236.195 120.704 236.195C121.388 236.195 121.988 236.335 122.518 236.614C123.049 236.893 123.453 237.298 123.76 237.8C124.068 238.317 124.221 238.917 124.235 239.601C124.235 239.796 124.221 239.978 124.193 240.173H118.806V240.257C118.834 240.885 119.029 241.373 119.392 241.736C119.741 242.099 120.215 242.28 120.802 242.28C121.262 242.28 121.653 242.183 121.974 241.959C122.281 241.736 122.49 241.429 122.602 241.024H124.109C123.97 241.75 123.621 242.35 123.049 242.811C122.476 243.285 121.765 243.509 120.913 243.509C120.159 243.509 119.517 243.369 118.959 243.062C118.401 242.755 117.982 242.336 117.675 241.778C117.368 241.234 117.228 240.592 117.228 239.866C117.228 239.14 117.368 238.498 117.661 237.94ZM122.7 239.07C122.63 238.554 122.421 238.149 122.072 237.856C121.723 237.563 121.29 237.409 120.76 237.409C120.257 237.409 119.838 237.563 119.476 237.87C119.113 238.177 118.917 238.568 118.861 239.07H122.7ZM134.036 236.642C134.538 236.935 134.943 237.354 135.236 237.912C135.515 238.47 135.669 239.112 135.669 239.852C135.669 240.578 135.515 241.22 135.236 241.778C134.943 242.336 134.538 242.755 134.036 243.062C133.519 243.369 132.933 243.509 132.291 243.509C131.76 243.509 131.3 243.411 130.909 243.216C130.518 243.02 130.197 242.755 129.974 242.42V246.216H128.467V236.279H129.779L129.96 237.34C130.532 236.586 131.314 236.195 132.291 236.195C132.933 236.195 133.519 236.349 134.036 236.642ZM133.547 241.569C133.938 241.122 134.133 240.55 134.133 239.852C134.133 239.154 133.938 238.582 133.547 238.135C133.156 237.702 132.654 237.479 132.04 237.479C131.412 237.479 130.909 237.702 130.532 238.135C130.141 238.568 129.96 239.126 129.96 239.824C129.96 240.55 130.141 241.122 130.532 241.569C130.909 242.015 131.412 242.239 132.04 242.239C132.654 242.239 133.156 242.015 133.547 241.569ZM136.765 237.94C137.058 237.381 137.463 236.963 137.993 236.656C138.523 236.349 139.124 236.195 139.807 236.195C140.491 236.195 141.092 236.335 141.622 236.614C142.152 236.893 142.557 237.298 142.864 237.8C143.171 238.317 143.325 238.917 143.339 239.601C143.339 239.796 143.325 239.978 143.297 240.173H137.909V240.257C137.937 240.885 138.133 241.373 138.495 241.736C138.844 242.099 139.319 242.28 139.905 242.28C140.366 242.28 140.757 242.183 141.078 241.959C141.385 241.736 141.594 241.429 141.706 241.024H143.213C143.073 241.75 142.725 242.35 142.152 242.811C141.58 243.285 140.868 243.509 140.017 243.509C139.263 243.509 138.621 243.369 138.063 243.062C137.504 242.755 137.086 242.336 136.779 241.778C136.472 241.234 136.332 240.592 136.332 239.866C136.332 239.14 136.472 238.498 136.765 237.94ZM141.803 239.07C141.734 238.554 141.524 238.149 141.175 237.856C140.826 237.563 140.394 237.409 139.863 237.409C139.361 237.409 138.942 237.563 138.579 237.87C138.216 238.177 138.021 238.568 137.965 239.07H141.803ZM148.228 236.279V237.688H147.558C146.93 237.688 146.483 237.898 146.204 238.303C145.925 238.707 145.786 239.224 145.786 239.838V243.425H144.278V236.279H145.618L145.786 237.354C145.981 237.019 146.246 236.767 146.581 236.572C146.902 236.377 147.335 236.279 147.893 236.279H148.228ZM159.067 236.963C159.555 237.465 159.807 238.275 159.807 239.391V243.425H158.299V239.405C158.299 238.791 158.174 238.317 157.922 237.982C157.671 237.661 157.294 237.493 156.806 237.493C156.275 237.493 155.871 237.688 155.564 238.051C155.257 238.414 155.117 238.917 155.117 239.559V243.425H153.596V239.405C153.596 238.777 153.456 238.303 153.205 237.982C152.954 237.661 152.577 237.493 152.088 237.493C151.572 237.493 151.167 237.688 150.86 238.065C150.553 238.456 150.413 238.959 150.413 239.601V243.425H148.906V236.279H150.218L150.385 237.214C150.888 236.544 151.586 236.209 152.479 236.195C152.982 236.195 153.414 236.307 153.805 236.516C154.182 236.739 154.475 237.06 154.684 237.493C154.936 237.088 155.257 236.767 155.675 236.544C156.08 236.321 156.569 236.195 157.155 236.195C157.936 236.195 158.564 236.46 159.067 236.963ZM162.304 233.683C162.471 233.85 162.569 234.074 162.569 234.325C162.569 234.59 162.471 234.813 162.304 234.981C162.122 235.148 161.899 235.232 161.648 235.232C161.383 235.232 161.159 235.148 160.992 234.981C160.81 234.813 160.727 234.59 160.727 234.325C160.727 234.074 160.81 233.85 160.992 233.683C161.159 233.515 161.383 233.418 161.648 233.418C161.899 233.418 162.122 233.515 162.304 233.683ZM160.894 236.279H162.401V243.425H160.894V236.279ZM164.061 237.605H162.818V236.279H164.061V234.283H165.582V236.279H167.299V237.605H165.582V241.331C165.582 241.611 165.638 241.82 165.749 241.932C165.861 242.043 166.042 242.099 166.322 242.099H167.466V243.425H166.015C165.331 243.425 164.828 243.271 164.521 242.95C164.214 242.643 164.061 242.155 164.061 241.485V237.605Z" fill="white"/>
<path d="M61.0246 251.063H64.8193V251.761H61.7835V253.802H64.2959V254.5H61.7835V257.17H61.0246V251.063ZM67.5239 252.721V253.419H67.1663C66.7388 253.419 66.4335 253.567 66.2503 253.846C66.0671 254.134 65.9799 254.483 65.9799 254.902V257.17H65.2646V252.721H65.8839L65.9799 253.392C66.102 253.192 66.2677 253.026 66.4771 252.904C66.6777 252.782 66.9569 252.721 67.3233 252.721H67.5239ZM68.821 256.934C68.4895 256.742 68.2278 256.481 68.0446 256.132C67.8527 255.791 67.7654 255.399 67.7654 254.945C67.7654 254.5 67.8527 254.108 68.0446 253.759C68.2278 253.419 68.4895 253.148 68.821 252.956C69.1525 252.764 69.5363 252.668 69.9725 252.668C70.3999 252.668 70.7837 252.764 71.1152 252.956C71.4467 253.148 71.7084 253.419 71.9003 253.759C72.0835 254.108 72.1795 254.5 72.1795 254.945C72.1795 255.399 72.0835 255.791 71.9003 256.132C71.7084 256.481 71.4467 256.742 71.1152 256.934C70.7837 257.126 70.3999 257.222 69.9725 257.222C69.5363 257.222 69.1525 257.126 68.821 256.934ZM70.7401 256.376C70.9669 256.236 71.1414 256.044 71.2635 255.791C71.3856 255.547 71.4467 255.259 71.4467 254.945C71.4467 254.631 71.3856 254.352 71.2635 254.099C71.1414 253.855 70.9669 253.654 70.7401 253.515C70.5133 253.375 70.2603 253.305 69.9725 253.305C69.6759 253.305 69.4229 253.375 69.1961 253.515C68.9693 253.654 68.8035 253.855 68.6814 254.099C68.5593 254.352 68.4982 254.631 68.4982 254.945C68.4982 255.259 68.5593 255.547 68.6814 255.791C68.8035 256.044 68.9693 256.236 69.1961 256.376C69.4229 256.515 69.6759 256.585 69.9725 256.585C70.2603 256.585 70.5133 256.515 70.7401 256.376ZM76.4804 253.157C76.8119 253.488 76.9776 253.994 76.9776 254.692V257.17H76.2623V254.736C76.2623 254.282 76.1576 253.933 75.9482 253.689C75.7389 253.445 75.4423 253.323 75.0585 253.323C74.6397 253.323 74.3082 253.471 74.0727 253.759C73.8285 254.055 73.7151 254.448 73.7151 254.945V257.17H72.9997V252.721H73.6191L73.7151 253.323C74.0465 252.887 74.535 252.668 75.1806 252.668C75.7214 252.668 76.1489 252.834 76.4804 253.157ZM78.1862 253.375H77.3836V252.721H78.1862V251.473H78.9015V252.721H80.0268V253.375H78.9015V256.001C78.9015 256.193 78.9364 256.324 79.0062 256.402C79.076 256.481 79.2068 256.515 79.39 256.515H80.1664V257.17H79.3464C78.9277 257.17 78.6224 257.082 78.4479 256.891C78.2734 256.707 78.1862 256.411 78.1862 256.009V253.375ZM87.1194 256.515V257.17H86.7269C86.439 257.17 86.2383 257.117 86.1162 256.995C85.9941 256.882 85.9243 256.707 85.9243 256.481C85.5754 256.978 85.0781 257.222 84.4326 257.222C83.9354 257.222 83.5341 257.109 83.2375 256.873C82.9409 256.646 82.7926 256.324 82.7926 255.922C82.7926 255.477 82.9409 255.137 83.2462 254.893C83.5515 254.657 83.9964 254.535 84.5809 254.535H85.8894V254.23C85.8894 253.942 85.7847 253.715 85.5928 253.549C85.4009 253.392 85.1305 253.305 84.7815 253.305C84.4675 253.305 84.2145 253.375 84.0139 253.515C83.8132 253.654 83.6911 253.829 83.6475 254.055H82.9322C82.9845 253.619 83.1764 253.279 83.5079 253.035C83.8394 252.791 84.2756 252.668 84.8164 252.668C85.3835 252.668 85.8196 252.808 86.1337 253.087C86.4477 253.366 86.6047 253.759 86.6047 254.274V256.193C86.6047 256.411 86.7007 256.515 86.9013 256.515H87.1194ZM85.8894 255.137H84.5111C83.8481 255.137 83.5166 255.39 83.5166 255.879C83.5166 256.105 83.6039 256.28 83.7784 256.411C83.9528 256.55 84.1883 256.611 84.4849 256.611C84.9211 256.611 85.2613 256.498 85.5143 256.271C85.7586 256.044 85.8894 255.739 85.8894 255.355V255.137ZM91.1499 253.157C91.4814 253.488 91.6472 253.994 91.6472 254.692V257.17H90.9319V254.736C90.9319 254.282 90.8272 253.933 90.6178 253.689C90.4085 253.445 90.1119 253.323 89.728 253.323C89.3093 253.323 88.9778 253.471 88.7423 253.759C88.498 254.055 88.3846 254.448 88.3846 254.945V257.17H87.6693V252.721H88.2887L88.3846 253.323C88.7161 252.887 89.2046 252.668 89.8502 252.668C90.391 252.668 90.8185 252.834 91.1499 253.157ZM96.7813 251.063V257.17H96.1619L96.066 256.454C95.6909 256.969 95.1849 257.222 94.5394 257.222C94.1207 257.222 93.7543 257.135 93.4315 256.952C93.1088 256.777 92.8558 256.515 92.6726 256.166C92.4894 255.826 92.4022 255.416 92.4022 254.945C92.4022 254.5 92.4894 254.108 92.6726 253.759C92.8558 253.419 93.1088 253.148 93.4402 252.956C93.763 252.764 94.1294 252.668 94.5394 252.668C94.897 252.668 95.2024 252.738 95.4641 252.869C95.717 253 95.9177 253.174 96.066 253.401V251.063H96.7813ZM95.3681 256.385C95.5949 256.245 95.7694 256.053 95.8915 255.809C96.0136 255.565 96.0747 255.277 96.0747 254.963C96.0747 254.649 96.0136 254.361 95.8915 254.108C95.7694 253.855 95.5949 253.654 95.3681 253.515C95.1413 253.375 94.8883 253.305 94.6092 253.305C94.1643 253.305 93.8066 253.462 93.5362 253.768C93.2658 254.073 93.1349 254.465 93.1349 254.945C93.1349 255.434 93.2658 255.826 93.5362 256.132C93.8066 256.437 94.1643 256.585 94.6092 256.585C94.8883 256.585 95.1413 256.524 95.3681 256.385ZM103.38 252.939C103.703 253.122 103.956 253.384 104.139 253.724C104.322 254.073 104.418 254.474 104.418 254.945C104.418 255.399 104.322 255.791 104.139 256.132C103.956 256.481 103.703 256.742 103.38 256.934C103.048 257.126 102.682 257.222 102.281 257.222C101.914 257.222 101.609 257.161 101.356 257.03C101.094 256.899 100.894 256.716 100.754 256.489L100.658 257.17H100.039V251.063H100.754V253.436C101.12 252.93 101.635 252.668 102.281 252.668C102.691 252.668 103.057 252.764 103.38 252.939ZM103.275 256.132C103.546 255.826 103.685 255.434 103.685 254.945C103.685 254.465 103.546 254.073 103.275 253.768C103.005 253.462 102.647 253.305 102.211 253.305C101.923 253.305 101.67 253.375 101.443 253.515C101.216 253.654 101.051 253.846 100.929 254.09C100.806 254.335 100.745 254.614 100.745 254.928C100.745 255.251 100.806 255.538 100.929 255.791C101.051 256.044 101.216 256.236 101.443 256.376C101.67 256.515 101.923 256.585 102.211 256.585C102.647 256.585 103.005 256.437 103.275 256.132ZM109.396 256.515V257.17H109.004C108.716 257.17 108.515 257.117 108.393 256.995C108.271 256.882 108.201 256.707 108.201 256.481C107.852 256.978 107.355 257.222 106.71 257.222C106.212 257.222 105.811 257.109 105.514 256.873C105.218 256.646 105.07 256.324 105.07 255.922C105.07 255.477 105.218 255.137 105.523 254.893C105.829 254.657 106.273 254.535 106.858 254.535H108.166V254.23C108.166 253.942 108.062 253.715 107.87 253.549C107.678 253.392 107.407 253.305 107.059 253.305C106.744 253.305 106.491 253.375 106.291 253.515C106.09 253.654 105.968 253.829 105.924 254.055H105.209C105.262 253.619 105.453 253.279 105.785 253.035C106.116 252.791 106.553 252.668 107.093 252.668C107.66 252.668 108.097 252.808 108.411 253.087C108.725 253.366 108.882 253.759 108.882 254.274V256.193C108.882 256.411 108.978 256.515 109.178 256.515H109.396ZM108.166 255.137H106.788C106.125 255.137 105.794 255.39 105.794 255.879C105.794 256.105 105.881 256.28 106.055 256.411C106.23 256.55 106.465 256.611 106.762 256.611C107.198 256.611 107.538 256.498 107.791 256.271C108.036 256.044 108.166 255.739 108.166 255.355V255.137ZM113.261 256.803C112.912 257.082 112.476 257.222 111.953 257.222C111.517 257.222 111.141 257.126 110.819 256.934C110.487 256.742 110.234 256.481 110.06 256.132C109.877 255.783 109.789 255.39 109.789 254.936C109.789 254.492 109.877 254.099 110.06 253.75C110.243 253.41 110.505 253.148 110.836 252.956C111.168 252.764 111.543 252.668 111.979 252.668C112.502 252.668 112.93 252.808 113.27 253.087C113.61 253.366 113.828 253.75 113.915 254.239H113.191C113.122 253.959 112.973 253.733 112.755 253.558C112.528 253.392 112.267 253.305 111.953 253.305C111.525 253.305 111.176 253.462 110.915 253.759C110.653 254.064 110.522 254.457 110.522 254.936C110.522 255.425 110.653 255.826 110.915 256.132C111.176 256.437 111.525 256.585 111.953 256.585C112.275 256.585 112.546 256.507 112.773 256.332C112.991 256.166 113.13 255.931 113.2 255.634H113.915C113.819 256.132 113.601 256.524 113.261 256.803ZM114.742 251.063H115.458V255.111L117.717 252.721H118.572L116.862 254.544L118.694 257.17H117.831L116.348 255.059L115.458 255.992V257.17H114.742V251.063Z" fill="white" fill-opacity="0.5"/>
</g>
</g>
<defs>
<filter id="filter0_b_355_4658" x="-104.445" y="-104.681" width="542.102" height="569.361" filterUnits="userSpaceOnUse" color-interpolation-filters="sRGB">
<feFlood flood-opacity="0" result="BackgroundImageFix"/>
<feGaussianBlur in="BackgroundImageFix" stdDeviation="52.3403"/>
<feComposite in2="SourceAlpha" operator="in" result="effect1_backgroundBlur_355_4658"/>
<feBlend mode="normal" in="SourceGraphic" in2="effect1_backgroundBlur_355_4658" result="shape"/>
</filter>
<filter id="filter1_b_355_4658" x="-78.4496" y="-79.562" width="483.634" height="243.741" filterUnits="userSpaceOnUse" color-interpolation-filters="sRGB">
<feFlood flood-opacity="0" result="BackgroundImageFix"/>
<feGaussianBlur in="BackgroundImageFix" stdDeviation="48.5044"/>
<feComposite in2="SourceAlpha" operator="in" result="effect1_backgroundBlur_355_4658"/>
<feBlend mode="normal" in="SourceGraphic" in2="effect1_backgroundBlur_355_4658" result="shape"/>
</filter>
<filter id="filter2_b_355_4658" x="-78.4496" y="-12.3922" width="483.634" height="243.741" filterUnits="userSpaceOnUse" color-interpolation-filters="sRGB">
<feFlood flood-opacity="0" result="BackgroundImageFix"/>
<feGaussianBlur in="BackgroundImageFix" stdDeviation="48.5044"/>
<feComposite in2="SourceAlpha" operator="in" result="effect1_backgroundBlur_355_4658"/>
<feBlend mode="normal" in="SourceGraphic" in2="effect1_backgroundBlur_355_4658" result="shape"/>
</filter>
<filter id="filter3_b_355_4658" x="-78.4496" y="54.7778" width="483.634" height="243.741" filterUnits="userSpaceOnUse" color-interpolation-filters="sRGB">
<feFlood flood-opacity="0" result="BackgroundImageFix"/>
<feGaussianBlur in="BackgroundImageFix" stdDeviation="48.5044"/>
<feComposite in2="SourceAlpha" operator="in" result="effect1_backgroundBlur_355_4658"/>
<feBlend mode="normal" in="SourceGraphic" in2="effect1_backgroundBlur_355_4658" result="shape"/>
</filter>
<filter id="filter4_b_355_4658" x="-78.4496" y="121.948" width="483.634" height="243.741" filterUnits="userSpaceOnUse" color-interpolation-filters="sRGB">
<feFlood flood-opacity="0" result="BackgroundImageFix"/>
<feGaussianBlur in="BackgroundImageFix" stdDeviation="48.5044"/>
<feComposite in2="SourceAlpha" operator="in" result="effect1_backgroundBlur_355_4658"/>
<feBlend mode="normal" in="SourceGraphic" in2="effect1_backgroundBlur_355_4658" result="shape"/>
</filter>
<linearGradient id="paint0_linear_355_4658" x1="-0.101411" y1="-1.94945e-06" x2="351.133" y2="354.247" gradientUnits="userSpaceOnUse">
<stop stop-color="white" stop-opacity="0.5"/>
<stop offset="1" stop-color="white" stop-opacity="0.75"/>
</linearGradient>
<linearGradient id="paint1_linear_355_4658" x1="-0.101411" y1="-1.25977e-06" x2="352.019" y2="373.426" gradientUnits="userSpaceOnUse">
<stop stop-color="white" stop-opacity="0.04"/>
<stop offset="1" stop-color="white" stop-opacity="0.1"/>
</linearGradient>
<linearGradient id="paint2_linear_355_4658" x1="18.2662" y1="17.4468" x2="22.3672" y2="131.772" gradientUnits="userSpaceOnUse">
<stop stop-color="white" stop-opacity="0"/>
<stop offset="1" stop-color="white" stop-opacity="0.75"/>
</linearGradient>
<linearGradient id="paint3_linear_355_4658" x1="18.2662" y1="17.4468" x2="32.5268" y2="112.751" gradientUnits="userSpaceOnUse">
<stop stop-color="white" stop-opacity="0.04"/>
<stop offset="1" stop-color="white" stop-opacity="0.1"/>
</linearGradient>
<linearGradient id="paint4_linear_355_4658" x1="18.2662" y1="84.6166" x2="22.3672" y2="198.942" gradientUnits="userSpaceOnUse">
<stop stop-color="white" stop-opacity="0"/>
<stop offset="1" stop-color="white" stop-opacity="0.75"/>
</linearGradient>
<linearGradient id="paint5_linear_355_4658" x1="18.2662" y1="84.6166" x2="32.5268" y2="179.92" gradientUnits="userSpaceOnUse">
<stop stop-color="white" stop-opacity="0.04"/>
<stop offset="1" stop-color="white" stop-opacity="0.1"/>
</linearGradient>
<linearGradient id="paint6_linear_355_4658" x1="18.2662" y1="151.787" x2="22.3672" y2="266.112" gradientUnits="userSpaceOnUse">
<stop stop-color="white" stop-opacity="0"/>
<stop offset="1" stop-color="white" stop-opacity="0.75"/>
</linearGradient>
<linearGradient id="paint7_linear_355_4658" x1="18.2662" y1="151.787" x2="32.5268" y2="247.09" gradientUnits="userSpaceOnUse">
<stop stop-color="white" stop-opacity="0.04"/>
<stop offset="1" stop-color="white" stop-opacity="0.1"/>
</linearGradient>
<linearGradient id="paint8_linear_355_4658" x1="18.2662" y1="218.957" x2="22.3672" y2="333.282" gradientUnits="userSpaceOnUse">
<stop stop-color="white" stop-opacity="0"/>
<stop offset="1" stop-color="white" stop-opacity="0.75"/>
</linearGradient>
<linearGradient id="paint9_linear_355_4658" x1="18.2662" y1="218.957" x2="32.5268" y2="314.26" gradientUnits="userSpaceOnUse">
<stop stop-color="white" stop-opacity="0.04"/>
<stop offset="1" stop-color="white" stop-opacity="0.1"/>
</linearGradient>
</defs>
</svg>
